<?xml version="1.0" encoding="utf-8"?>
<!-- Generator: Adobe Illustrator 16.0.3, SVG Export Plug-In . SVG Version: 6.00 Build 0)  -->
<!DOCTYPE svg PUBLIC "-//W3C//DTD SVG 1.1//EN" "http://www.w3.org/Graphics/SVG/1.1/DTD/svg11.dtd">
<svg version="1.1" id="Layer_1" xmlns="http://www.w3.org/2000/svg" xmlns:xlink="http://www.w3.org/1999/xlink" x="0px" y="0px"
	 width="32px" height="32px" viewBox="0 0 32 32" enable-background="new 0 0 32 32" xml:space="preserve">
<path fill="#818181" d="M18.282,23.144c-1.672,0.327-3.19,0.847-4.659,1.348c-0.664,0.227-1.29,0.441-1.918,0.634
	c-1.195,0.365-2.722,0.369-3.439-0.448c-0.959-1.091-0.832-2.902-0.556-4.229c0.612-2.945,2.417-6.2,4.781-8.683l0.021,0.017
	c0.372,0.294,0.912,0.232,1.206-0.139l1.496-1.886c0.295-0.372,0.232-0.912-0.139-1.207l-0.845-0.67l3.553-4.432
	c0.355-0.444,0.284-1.092-0.16-1.448l-1.913-1.534c-0.19-0.152-0.418-0.226-0.645-0.226c-0.302,0-0.601,0.132-0.805,0.386
	l-3.566,4.45l-0.77-0.61C9.554,4.17,9.013,4.233,8.718,4.604L7.223,6.491C6.929,6.861,6.99,7.4,7.36,7.696
	c-3.001,3.301-5.217,7.46-6.041,11.423c-0.829,3.988-0.124,7.399,2.042,9.865c1.87,2.129,4.403,2.9,6.805,2.9
	c1.219,0,2.405-0.199,3.452-0.521c0.727-0.223,1.433-0.463,2.115-0.696c1.32-0.451,2.567-0.877,3.804-1.12
	c2.007-0.393,4.059-0.118,4.479,0.6c0.243,0.415,0.473,1.237,0.473,1.693h6.527c0-1.614-0.537-3.574-1.368-4.992
	C27.35,22.925,22.271,22.361,18.282,23.144z M15.109,1.406l1.467,1.253l-3.436,4.372l-1.469-1.25L15.109,1.406z"/>
</svg>
