<?xml version="1.0" encoding="utf-8"?>
<!-- Generator: Adobe Illustrator 16.0.3, SVG Export Plug-In . SVG Version: 6.00 Build 0)  -->
<!DOCTYPE svg PUBLIC "-//W3C//DTD SVG 1.1//EN" "http://www.w3.org/Graphics/SVG/1.1/DTD/svg11.dtd">
<svg version="1.1" id="Layer_1" xmlns="http://www.w3.org/2000/svg" xmlns:xlink="http://www.w3.org/1999/xlink" x="0px" y="0px"
	 width="32px" height="32px" viewBox="0 0 32 32" enable-background="new 0 0 32 32" xml:space="preserve">
<path fill="#818181" d="M28.601,0.037H3.4c-1.578,0-2.868,1.321-2.868,2.936v26.131c0,1.615,1.291,2.936,2.868,2.936h25.201
	c1.577,0,2.867-1.32,2.867-2.936V2.972C31.468,1.358,30.178,0.037,28.601,0.037z M6.937,28.082c0,0.463-0.371,0.844-0.824,0.844
	H4.132c-0.453,0-0.824-0.381-0.824-0.844V26.48c0-0.465,0.371-0.844,0.824-0.844h1.981c0.453,0,0.824,0.379,0.824,0.844V28.082z
	 M6.937,24.09c0,0.465-0.371,0.844-0.824,0.844H4.132c-0.453,0-0.824-0.379-0.824-0.844v-1.602c0-0.463,0.371-0.842,0.824-0.842
	h1.981c0.453,0,0.824,0.379,0.824,0.842V24.09z M6.937,20.1c0,0.463-0.371,0.842-0.824,0.842H4.132
	c-0.453,0-0.824-0.379-0.824-0.842v-1.602c0-0.465,0.371-0.844,0.824-0.844h1.981c0.453,0,0.824,0.379,0.824,0.844V20.1z
	 M6.937,16.107c0,0.463-0.371,0.844-0.824,0.844H4.132c-0.453,0-0.824-0.381-0.824-0.844v-1.602c0-0.464,0.371-0.843,0.824-0.843
	h1.981c0.453,0,0.824,0.379,0.824,0.843V16.107z M11.914,28.082c0,0.463-0.371,0.844-0.823,0.844H9.109
	c-0.453,0-0.823-0.381-0.823-0.844V26.48c0-0.465,0.371-0.844,0.823-0.844h1.981c0.453,0,0.823,0.379,0.823,0.844V28.082z
	 M11.914,24.09c0,0.465-0.371,0.844-0.823,0.844H9.109c-0.453,0-0.823-0.379-0.823-0.844v-1.602c0-0.463,0.371-0.842,0.823-0.842
	h1.981c0.453,0,0.823,0.379,0.823,0.842V24.09z M11.914,20.1c0,0.463-0.371,0.842-0.823,0.842H9.109
	c-0.453,0-0.823-0.379-0.823-0.842v-1.602c0-0.465,0.371-0.844,0.823-0.844h1.981c0.453,0,0.823,0.379,0.823,0.844V20.1z
	 M11.914,16.107c0,0.463-0.371,0.844-0.823,0.844H9.109c-0.453,0-0.823-0.381-0.823-0.844v-1.602c0-0.464,0.371-0.843,0.823-0.843
	h1.981c0.453,0,0.823,0.379,0.823,0.843V16.107z M16.892,28.082c0,0.463-0.37,0.844-0.823,0.844h-1.981
	c-0.453,0-0.824-0.381-0.824-0.844V26.48c0-0.465,0.371-0.844,0.824-0.844h1.981c0.453,0,0.823,0.379,0.823,0.844V28.082z
	 M16.892,24.09c0,0.465-0.37,0.844-0.823,0.844h-1.981c-0.453,0-0.824-0.379-0.824-0.844v-1.602c0-0.463,0.371-0.842,0.824-0.842
	h1.981c0.453,0,0.823,0.379,0.823,0.842V24.09z M16.892,20.1c0,0.463-0.37,0.842-0.823,0.842h-1.981
	c-0.453,0-0.824-0.379-0.824-0.842v-1.602c0-0.465,0.371-0.844,0.824-0.844h1.981c0.453,0,0.823,0.379,0.823,0.844V20.1z
	 M16.892,16.107c0,0.463-0.37,0.844-0.823,0.844h-1.981c-0.453,0-0.824-0.381-0.824-0.844v-1.602c0-0.464,0.371-0.843,0.824-0.843
	h1.981c0.453,0,0.823,0.379,0.823,0.843V16.107z M23.478,28.117c0,0.463-0.371,0.842-0.824,0.842h-1.98
	c-0.453,0-0.824-0.379-0.824-0.842v-5.629c0-0.463,0.371-0.842,0.824-0.842h1.98c0.453,0,0.824,0.379,0.824,0.842V28.117z
	 M23.478,20.1c0,0.463-0.371,0.842-0.824,0.842h-1.98c-0.453,0-0.824-0.379-0.824-0.842v-1.602c0-0.465,0.371-0.844,0.824-0.844
	h1.98c0.453,0,0.824,0.379,0.824,0.844V20.1z M23.478,16.107c0,0.463-0.371,0.844-0.824,0.844h-1.98
	c-0.453,0-0.824-0.381-0.824-0.844v-1.602c0-0.464,0.371-0.843,0.824-0.843h1.98c0.453,0,0.824,0.379,0.824,0.843V16.107z
	 M28.456,28.082c0,0.463-0.371,0.844-0.824,0.844h-1.98c-0.453,0-0.824-0.381-0.824-0.844V26.48c0-0.465,0.371-0.844,0.824-0.844
	h1.98c0.453,0,0.824,0.379,0.824,0.844V28.082z M28.456,24.09c0,0.465-0.371,0.844-0.824,0.844h-1.98
	c-0.453,0-0.824-0.379-0.824-0.844v-1.602c0-0.463,0.371-0.842,0.824-0.842h1.98c0.453,0,0.824,0.379,0.824,0.842V24.09z
	 M28.456,20.1c0,0.463-0.371,0.842-0.824,0.842h-1.98c-0.453,0-0.824-0.379-0.824-0.842v-1.602c0-0.465,0.371-0.844,0.824-0.844
	h1.98c0.453,0,0.824,0.379,0.824,0.844V20.1z M28.456,16.107c0,0.463-0.371,0.844-0.824,0.844h-1.98
	c-0.453,0-0.824-0.381-0.824-0.844v-1.602c0-0.464,0.371-0.843,0.824-0.843h1.98c0.453,0,0.824,0.379,0.824,0.843V16.107z
	 M28.799,8.557c0,0.692-0.553,1.258-1.229,1.258H4.536c-0.676,0-1.228-0.565-1.228-1.258V4.701c0-0.691,0.552-1.257,1.228-1.257
	H27.57c0.676,0,1.229,0.565,1.229,1.257V8.557z"/>
</svg>
