<?xml version="1.0" encoding="utf-8"?>
<!-- Generator: Adobe Illustrator 16.0.3, SVG Export Plug-In . SVG Version: 6.00 Build 0)  -->
<!DOCTYPE svg PUBLIC "-//W3C//DTD SVG 1.1//EN" "http://www.w3.org/Graphics/SVG/1.1/DTD/svg11.dtd">
<svg version="1.1" id="Layer_1" xmlns="http://www.w3.org/2000/svg" xmlns:xlink="http://www.w3.org/1999/xlink" x="0px" y="0px"
	 width="32px" height="32px" viewBox="0 0 32 32" enable-background="new 0 0 32 32" xml:space="preserve">
<path fill="#818181" d="M11.654,17.729c-0.869,0.744-2.109,0.868-2.73,0.124l-3.599-3.599c-0.745-0.745-0.745-1.986,0-2.855
	L1.727,7.676c-1.489,1.614-1.737,4.22-0.745,5.957c0,0,1.365,2.357,3.723,4.716c2.357,2.355,4.592,3.723,4.592,3.723
	c1.613,0.992,4.343,0.744,5.956-0.746L11.654,17.729z M5.698,9.662L3.34,7.304c-0.372-0.372-0.868-0.372-1.241,0l3.6,3.599
	C6.07,10.531,6.07,10.035,5.698,9.662z M15.626,19.714l-2.358-2.358c-0.248-0.372-0.868-0.372-1.241,0l3.6,3.6
	C15.874,20.583,15.874,20.086,15.626,19.714z M31.014,23.561c0,0-9.308,0-9.555,0c-0.373,0-0.621,0-0.994,0
	c0.373-0.496,0.497-0.993,0.497-1.488c0-0.746-0.497-1.614-1.489-1.738c-0.124,0-0.249,0-0.249,0c-1.114,0-1.984,0.993-1.984,2.11
	c0,0.372,0.123,0.744,0.248,0.992c0,0,0,0,0.124,0l0,0c0.496,0,0.868-0.123,1.117-0.372c-0.249-0.248-0.372-0.497-0.372-0.62
	c0-0.249,0.123-0.497,0.247-0.62c0.125-0.125,0.373-0.249,0.496-0.249l0,0c0,0,0,0,0.124,0c0.247,0.124,0.496,0.249,0.496,0.497
	c0,0.62-0.745,1.241-0.745,1.241c-0.371,0.247-0.743,0.495-1.239,0.495l0,0c-0.126,0-0.248,0-0.373,0
	c-0.994-0.123-1.736-0.62-2.11-0.992c-0.248-0.249-0.621-0.249-0.868,0c-0.249,0.248-0.249,0.62,0,0.869
	c0.62,0.62,1.737,1.364,3.35,1.364h0.125c0.495,0,0.992-0.124,1.489-0.372c0.62,0.124,1.241,0.248,2.108,0.248
	c0.247,0,9.555,0,9.555,0c0.373,0,0.62-0.248,0.62-0.62S31.387,23.561,31.014,23.561z"/>
</svg>
