<?xml version="1.0" encoding="utf-8"?>
<!-- Generator: Adobe Illustrator 16.0.3, SVG Export Plug-In . SVG Version: 6.00 Build 0)  -->
<!DOCTYPE svg PUBLIC "-//W3C//DTD SVG 1.1//EN" "http://www.w3.org/Graphics/SVG/1.1/DTD/svg11.dtd">
<svg version="1.1" id="Layer_1" xmlns="http://www.w3.org/2000/svg" xmlns:xlink="http://www.w3.org/1999/xlink" x="0px" y="0px"
	 width="32px" height="32px" viewBox="0 0 32 32" enable-background="new 0 0 32 32" xml:space="preserve">
<g>
	<rect x="15.679" y="4.014" fill="#818181" width="1.014" height="2.396"/>
	<rect x="15.574" y="25.08" fill="#818181" width="1.015" height="2.396"/>
	<rect x="4.188" y="15.683" fill="#818181" width="2.451" height="0.992"/>
	<rect x="25.39" y="15.683" fill="#818181" width="2.45" height="0.992"/>
	<path fill="#818181" d="M16.081,0.875c-8.414,0-15.235,6.67-15.235,14.896c0,8.227,6.821,14.896,15.235,14.896
		c8.414,0,15.235-6.669,15.235-14.896C31.315,7.545,24.494,0.875,16.081,0.875z M16.047,28.317c-7.086,0-12.833-5.617-12.833-12.545
		c0-6.929,5.745-12.548,12.833-12.548s12.832,5.619,12.832,12.548C28.879,22.7,23.135,28.317,16.047,28.317z"/>
	<path fill="#818181" d="M21.066,9.575l-5.447,6.074l-4.498-3.858c-0.343-0.294-0.906-0.213-1.261,0.179
		c-0.352,0.393-0.359,0.95-0.015,1.244l5.331,4.57c0.342,0.293,0.907,0.214,1.259-0.179c0.073-0.083,0.124-0.174,0.167-0.268
		c0.079-0.051,0.16-0.096,0.226-0.17l5.693-6.347c0.365-0.408,0.337-1.019-0.065-1.363C22.056,9.114,21.434,9.166,21.066,9.575z"/>
</g>
</svg>
