<?xml version="1.0" encoding="utf-8"?>
<!-- Generator: Adobe Illustrator 16.0.3, SVG Export Plug-In . SVG Version: 6.00 Build 0)  -->
<!DOCTYPE svg PUBLIC "-//W3C//DTD SVG 1.1//EN" "http://www.w3.org/Graphics/SVG/1.1/DTD/svg11.dtd">
<svg version="1.1" id="Layer_1" xmlns="http://www.w3.org/2000/svg" xmlns:xlink="http://www.w3.org/1999/xlink" x="0px" y="0px"
	 width="32px" height="32px" viewBox="0 0 32 32" enable-background="new 0 0 32 32" xml:space="preserve">
<path fill="#818181" d="M28.289,25.194V3.666c0-1.742-1.403-3.167-3.121-3.167H6.825c-1.717,0-3.121,1.425-3.121,3.167V28.53
	c0,1.743,1.404,3.168,3.121,3.168h2.226l18.307-3.5c0,0,0.172-0.019,0.368-0.12c0.004-0.003,0.009-0.005,0.013-0.007
	c0.227-0.122,0.479-0.359,0.542-0.813c0.007-0.044,0.011-0.08,0.012-0.106c0.001-0.01,0.001-0.02,0.002-0.03
	c0-0.011,0.001-0.019,0.001-0.019v-1.926C28.293,25.185,28.291,25.189,28.289,25.194z M18.377,6.727h6.592
	c0.456,0,0.826,0.376,0.826,0.838c0,0.463-0.37,0.838-0.826,0.838h-6.592c-0.456,0-0.826-0.375-0.826-0.838
	C17.551,7.103,17.921,6.727,18.377,6.727z M24.969,10.771h-6.592c-0.152,0-0.275-0.124-0.275-0.279c0-0.154,0.123-0.279,0.275-0.279
	h6.592c0.152,0,0.276,0.125,0.276,0.279C25.245,10.646,25.121,10.771,24.969,10.771z M25.245,12.722
	c0,0.155-0.124,0.279-0.276,0.279h-6.592c-0.152,0-0.275-0.124-0.275-0.279c0-0.154,0.123-0.279,0.275-0.279h6.592
	C25.121,12.442,25.245,12.567,25.245,12.722z M9.284,7.723c0-1.195,1.021-2.164,2.282-2.164c1.26,0,2.281,0.969,2.281,2.164
	c0,0.771-0.426,1.445-1.064,1.829c1.229,0.597,2.096,2.133,2.096,4.607H8.172c0-2.505,0.89-4.047,2.142-4.628
	C9.694,9.145,9.284,8.479,9.284,7.723z M7.85,16.598h17.236c0.152,0,0.275,0.125,0.275,0.278c0,0.154-0.123,0.279-0.275,0.279H7.85
	c-0.152,0-0.275-0.125-0.275-0.279C7.574,16.723,7.697,16.598,7.85,16.598z M7.85,18.496h17.236c0.152,0,0.275,0.125,0.275,0.279
	s-0.123,0.279-0.275,0.279H7.85c-0.152,0-0.275-0.125-0.275-0.279S7.697,18.496,7.85,18.496z M7.849,22.874
	c-0.14,0-0.252-0.114-0.252-0.255v-2.03c0-0.142,0.112-0.256,0.252-0.256h17.233c0.14,0,0.252,0.114,0.252,0.256v2.03
	c0,0.141-0.112,0.255-0.252,0.255H7.849z M11.695,30.302l12.577-6.718c-0.152,1.025,0,1.922,0.454,2.674
	c0.358,0.595,0.853,1.007,1.324,1.288L11.695,30.302z"/>
</svg>
