<?xml version="1.0" encoding="utf-8"?>
<!-- Generator: Adobe Illustrator 16.0.3, SVG Export Plug-In . SVG Version: 6.00 Build 0)  -->
<!DOCTYPE svg PUBLIC "-//W3C//DTD SVG 1.1//EN" "http://www.w3.org/Graphics/SVG/1.1/DTD/svg11.dtd">
<svg version="1.1" id="Layer_1" xmlns="http://www.w3.org/2000/svg" xmlns:xlink="http://www.w3.org/1999/xlink" x="0px" y="0px"
	 width="32px" height="32px" viewBox="0 0 32 32" enable-background="new 0 0 32 32" xml:space="preserve">
<path fill-rule="evenodd" clip-rule="evenodd" fill="#818181" d="M30.424,13.808H22.77V0.226H9.235v13.582H1.581H1.578
	c-0.603,0-1.093,0.489-1.093,1.093c0,0.297,0.116,0.563,0.308,0.76l14.383,15.714c0.005,0.005,0.01,0.009,0.014,0.014l0.029,0.032
	h0.002c0.199,0.217,0.487,0.354,0.804,0.354c0.344,0,0.651-0.158,0.853-0.409l14.339-15.711c0.184-0.197,0.3-0.46,0.3-0.753
	C31.516,14.298,31.026,13.81,30.424,13.808z"/>
</svg>
