<?xml version="1.0" encoding="utf-8"?>
<!-- Generator: Adobe Illustrator 16.0.3, SVG Export Plug-In . SVG Version: 6.00 Build 0)  -->
<!DOCTYPE svg PUBLIC "-//W3C//DTD SVG 1.1//EN" "http://www.w3.org/Graphics/SVG/1.1/DTD/svg11.dtd">
<svg version="1.1" id="Layer_1" xmlns="http://www.w3.org/2000/svg" xmlns:xlink="http://www.w3.org/1999/xlink" x="0px" y="0px"
	 width="32px" height="32px" viewBox="0 0 32 32" enable-background="new 0 0 32 32" xml:space="preserve">
<g>
	<path fill="#818181" d="M15.594,0.816c2.347,0,4.47,1.027,6.366,3.083c1.324,1.678,1.988,3.501,1.988,5.471
		c0,2.468-1.113,4.67-3.337,6.603c-1.972,1.083-2.957,2.651-2.957,4.706c-0.182,1.252-0.839,1.879-1.969,1.879
		c-1.204-0.268-1.806-0.84-1.806-1.715v-0.547c0-3.076,1.586-5.593,4.76-7.552c1.009-0.997,1.515-2.188,1.515-3.575
		c0-1.738-0.926-3.131-2.772-4.176c-0.828-0.255-1.49-0.383-1.989-0.383c-1.811,0-3.228,0.961-4.249,2.882l-0.492,2.407
		c-0.547,0.705-1.125,1.058-1.733,1.058c-1.252-0.268-1.878-0.888-1.878-1.86c0-2.663,1.307-4.979,3.921-6.949
		C12.554,1.26,14.098,0.816,15.594,0.816z M15.466,26.453h0.346c1.071,0,1.825,0.656,2.261,1.969v0.619
		c-0.278,1.484-1.124,2.227-2.534,2.227c-1.52-0.328-2.28-1.107-2.28-2.336C13.259,27.57,13.995,26.744,15.466,26.453z"/>
</g>
</svg>
