<?xml version="1.0" encoding="utf-8"?>
<!-- Generator: Adobe Illustrator 16.0.3, SVG Export Plug-In . SVG Version: 6.00 Build 0)  -->
<!DOCTYPE svg PUBLIC "-//W3C//DTD SVG 1.1//EN" "http://www.w3.org/Graphics/SVG/1.1/DTD/svg11.dtd">
<svg version="1.1" id="Layer_1" xmlns="http://www.w3.org/2000/svg" xmlns:xlink="http://www.w3.org/1999/xlink" x="0px" y="0px"
	 width="32px" height="32px" viewBox="0 0 32 32" enable-background="new 0 0 32 32" xml:space="preserve">
<path fill="#818181" d="M11.135,30.085c-3.7,0-6.372-2.341-6.372-5.154c0-2.756,3.316-5.052,7.014-5.011
	c0.864,0.011,1.669,0.146,2.399,0.382c2.007,1.399,3.45,2.187,3.853,3.777c0.077,0.325,0.119,0.654,0.119,0.993
	C18.147,27.889,16.336,30.085,11.135,30.085 M12.106,13.588C9.625,13.513,7.263,10.81,6.835,7.55
	c-0.429-3.261,1.236-5.756,3.719-5.683c2.481,0.075,4.841,2.689,5.271,5.951C16.256,11.077,14.589,13.663,12.106,13.588
	 M17.255,18.418c-0.873-0.617-2.538-2.117-2.538-2.999c0-1.034,0.296-1.542,1.853-2.757c1.594-1.246,2.719-2.998,2.719-5.032
	c0-2.424-1.079-4.787-3.105-5.568h3.057l2.157-1.559h-9.638c-4.321,0-8.386,3.273-8.386,7.064c0,3.875,2.945,7.003,7.34,7.003
	c0.306,0,0.603-0.005,0.894-0.028c-0.286,0.545-0.49,1.163-0.49,1.799c0,1.077,0.58,1.95,1.312,2.666
	c-0.555,0-1.089,0.015-1.67,0.015c-5.353,0-9.473,3.409-9.473,6.943c0,3.48,4.516,5.657,9.868,5.657
	c6.102,0,9.472-3.459,9.472-6.941C20.625,21.889,19.803,20.217,17.255,18.418 M31.278,13.874h-3.753v-3.751h-3.019v3.751h-3.754
	v3.019h3.754v3.752h3.019v-3.752h3.753V13.874z"/>
</svg>
