<?xml version="1.0" encoding="utf-8"?>
<!-- Generator: Adobe Illustrator 16.0.3, SVG Export Plug-In . SVG Version: 6.00 Build 0)  -->
<!DOCTYPE svg PUBLIC "-//W3C//DTD SVG 1.1//EN" "http://www.w3.org/Graphics/SVG/1.1/DTD/svg11.dtd">
<svg version="1.1" id="Layer_1" xmlns="http://www.w3.org/2000/svg" xmlns:xlink="http://www.w3.org/1999/xlink" x="0px" y="0px"
	 width="32px" height="32px" viewBox="0 0 32 32" enable-background="new 0 0 32 32" xml:space="preserve">
<path fill="#818181" d="M4.184,11.027c-0.227,0-0.41,0.194-0.41,0.435v5.051c0,0.24,0.184,0.435,0.41,0.435
	c0.227,0,0.411-0.194,0.411-0.435v-5.051C4.594,11.221,4.411,11.027,4.184,11.027z M13.529,7.683h-6.44V4.834
	c0-0.69-0.656-1.251-1.464-1.251S4.161,4.144,4.161,4.834V7.83c-2.021,0.52-3.513,2.354-3.513,4.538v13.76
	c0,2.587,2.096,4.685,4.684,4.685h8.197c2.588,0,4.685-2.098,4.685-4.685v-13.76C18.214,9.779,16.117,7.683,13.529,7.683z
	 M7.232,27.297c0,0.323-0.262,0.586-0.586,0.586H5.865c-0.323,0-0.585-0.263-0.585-0.586v-0.521c0-0.322,0.263-0.586,0.585-0.586
	h0.781c0.324,0,0.586,0.264,0.586,0.586V27.297z M7.232,24.564c0,0.322-0.262,0.585-0.586,0.585H5.865
	c-0.323,0-0.585-0.263-0.585-0.585v-0.521c0-0.323,0.263-0.586,0.585-0.586h0.781c0.324,0,0.586,0.263,0.586,0.586V24.564z
	 M7.232,21.831c0,0.323-0.262,0.586-0.586,0.586H5.865c-0.323,0-0.585-0.263-0.585-0.586v-0.521c0-0.322,0.263-0.586,0.585-0.586
	h0.781c0.324,0,0.586,0.264,0.586,0.586V21.831z M10.484,27.297c0,0.323-0.262,0.586-0.585,0.586H9.118
	c-0.324,0-0.586-0.263-0.586-0.586v-0.521c0-0.322,0.262-0.586,0.586-0.586h0.781c0.323,0,0.585,0.264,0.585,0.586V27.297z
	 M10.484,24.564c0,0.322-0.262,0.585-0.585,0.585H9.118c-0.324,0-0.586-0.263-0.586-0.585v-0.521c0-0.323,0.262-0.586,0.586-0.586
	h0.781c0.323,0,0.585,0.263,0.585,0.586V24.564z M10.484,21.831c0,0.324-0.262,0.586-0.585,0.586H9.118
	c-0.324,0-0.586-0.262-0.586-0.586v-0.521c0-0.322,0.262-0.586,0.586-0.586h0.781c0.323,0,0.585,0.264,0.585,0.586V21.831z
	 M13.738,27.297c0,0.323-0.262,0.586-0.586,0.586h-0.781c-0.323,0-0.585-0.263-0.585-0.586v-0.521c0-0.322,0.263-0.586,0.585-0.586
	h0.781c0.324,0,0.586,0.264,0.586,0.586V27.297z M13.738,24.564c0,0.322-0.262,0.585-0.586,0.585h-0.781
	c-0.323,0-0.585-0.263-0.585-0.585v-0.521c0-0.323,0.263-0.586,0.585-0.586h0.781c0.324,0,0.586,0.263,0.586,0.586V24.564z
	 M13.738,21.831c0,0.323-0.262,0.586-0.586,0.586h-0.781c-0.323,0-0.585-0.263-0.585-0.586v-0.521c0-0.322,0.263-0.586,0.585-0.586
	h0.781c0.324,0,0.586,0.264,0.586,0.586V21.831z M16.457,16.439c0,1.309-0.787,2.368-1.757,2.368H4.452
	c-0.969,0-1.756-1.06-1.756-2.368V12.1c0-1.307,0.788-2.367,1.756-2.367H14.7c0.97,0,1.757,1.06,1.757,2.367V16.439z M24.841,3.672
	c-0.262-0.242-0.67-0.227-0.913,0.036c-0.24,0.262-0.225,0.671,0.038,0.913c1.798,1.659,2.842,3.92,2.939,6.365
	c0.098,2.445-0.761,4.781-2.422,6.579c-0.241,0.263-0.225,0.672,0.037,0.913c0.263,0.241,0.671,0.226,0.912-0.036
	c1.894-2.052,2.875-4.718,2.764-7.507C28.084,8.145,26.894,5.565,24.841,3.672z M31.341,10.809c-0.146-3.63-1.695-6.986-4.364-9.449
	c-0.263-0.242-0.671-0.226-0.913,0.036c-0.241,0.262-0.226,0.67,0.036,0.913c2.417,2.23,3.82,5.267,3.951,8.552
	c0.132,3.285-1.024,6.425-3.253,8.84c-0.243,0.263-0.226,0.671,0.035,0.913c0.264,0.241,0.672,0.226,0.913-0.037
	C30.211,17.908,31.486,14.438,31.341,10.809z M21.01,7.825c-0.263-0.243-0.671-0.227-0.913,0.036
	c-0.241,0.262-0.226,0.67,0.036,0.913c0.689,0.636,1.091,1.502,1.127,2.439c0.038,0.937-0.291,1.833-0.928,2.522
	c-0.242,0.262-0.226,0.67,0.037,0.913c0.262,0.241,0.67,0.225,0.913-0.037c0.869-0.943,1.32-2.167,1.269-3.45
	C22.498,9.879,21.952,8.694,21.01,7.825z M22.871,5.807c-0.263-0.242-0.672-0.226-0.913,0.037c-0.241,0.262-0.226,0.67,0.036,0.912
	c1.229,1.134,1.941,2.677,2.009,4.347c0.066,1.67-0.521,3.265-1.654,4.493c-0.241,0.262-0.226,0.67,0.037,0.912
	c0.262,0.241,0.67,0.226,0.913-0.036C26.121,13.413,25.928,8.63,22.871,5.807z"/>
</svg>
