<?xml version="1.0" encoding="utf-8"?>
<!-- Generator: Adobe Illustrator 16.0.3, SVG Export Plug-In . SVG Version: 6.00 Build 0)  -->
<!DOCTYPE svg PUBLIC "-//W3C//DTD SVG 1.1//EN" "http://www.w3.org/Graphics/SVG/1.1/DTD/svg11.dtd">
<svg version="1.1" id="Layer_1" xmlns="http://www.w3.org/2000/svg" xmlns:xlink="http://www.w3.org/1999/xlink" x="0px" y="0px"
	 width="32px" height="32px" viewBox="0 0 32 32" enable-background="new 0 0 32 32" xml:space="preserve">
<g>
	<path fill="#818181" d="M23.465,27.524c-0.011-0.015-0.011-0.046-0.019-0.064l-0.022,0.025L23.465,27.524z"/>
	<path fill="#818181" d="M29.365,0.844c-0.021,0.02-0.048,0.04-0.037,0.077c0.217-0.118,0.522-0.337,0.635-0.431l-0.037-0.038
		c0.067-0.032,0.021-0.107,0.028-0.155c-0.245,0.139-0.509,0.396-0.793,0.556C29.246,0.82,29.3,0.708,29.365,0.844z"/>
	<path fill="#818181" d="M29.012,0.612l-0.008-0.116l-0.041,0.002c0.052,0.014,0.052,0.092,0.008,0.114H29.012z"/>
	<polygon fill="#818181" points="30.508,0.501 30.218,0.834 30.545,0.498 	"/>
	<path fill="#818181" d="M31.058,3.23c0.042,0.231-0.333,0.31-0.24,0.555l0.393-0.642C31.143,3.119,31.105,3.189,31.058,3.23z"/>
	<path fill="#818181" d="M30.419,3.575c0.055,0.14-0.041,0.155-0.123,0.191c-0.018-0.017-0.037-0.033-0.05-0.046L30.173,3.8
		c-0.188-0.058,0.052-0.213,0.018-0.357c-0.011,0.011-0.026,0.004-0.037,0.009c0.064-0.055,0.057-0.136,0.052-0.216
		c-0.045,0.08-0.176,0.125-0.145,0.24c-0.046,0-0.096,0.003-0.135,0.067c-0.021-0.027-0.052-0.045-0.043-0.085l-0.035,0.04
		c-0.041,0.002-0.1,0.014-0.119-0.033l0.037-0.04c0.032-0.099-0.084-0.12-0.124-0.186l0.035-0.04
		c-0.167-0.04-0.306-0.09-0.444-0.171c-0.008,0.06,0.096,0.113,0.01,0.155c-0.316,0.115-0.183-0.308-0.444-0.324
		c0.02-0.02,0.037-0.051,0.075-0.042l-0.004-0.079c-0.082-0.045-0.178-0.047-0.238-0.14l0.035-0.043
		c-0.035-0.259,0.247-0.09,0.342-0.172c0.018,0.019,0.037,0.045,0.078,0.033c0.066-0.033,0.025-0.106,0.028-0.155
		c0.058-0.08,0.132-0.124,0.238-0.129l-0.135-0.186l0.004,0.079c-0.02,0.02-0.039,0.049-0.075,0.04
		c-0.05-0.015-0.046-0.073-0.046-0.113c-0.228,0.023-0.361,0.204-0.616,0.149c-0.078-0.005-0.117,0.162-0.189,0.049
		c-0.08-0.219,0.183-0.155,0.254-0.284c0.306-0.125,0.662-0.318,0.795-0.598c-0.041,0.002-0.111-0.001-0.124,0.047
		c-0.071-0.028-0.037-0.106-0.048-0.153c-0.075,0.004-0.125,0.172-0.188,0.087c-0.023-0.058,0.042-0.08,0.07-0.12
		c-0.13,0.055-0.282,0.141-0.334,0.29l-0.041-0.035c-0.19,0.118-0.354-0.125-0.548-0.124l0.028-0.119
		c-0.063,0.001-0.1,0.084-0.147,0.125c-0.098-0.054-0.114-0.149-0.166-0.224c-0.163,0.02-0.271,0.14-0.421,0.217
		c-0.075-0.257-0.348-0.135-0.517-0.205c-0.388,0.167-0.839,0.219-1.228,0.416c-0.172-0.318-0.494,0.007-0.778-0.077
		c-1.064,0.377-2.26,0.443-3.392,0.687c-0.734,0.125-1.565,0.212-2.232,0.403c-0.909,0.038-2.016,0.137-2.994,0.12
		c-0.061-0.004-0.112,0.093-0.156,0.009c-0.647,0.005-1.292,0.137-1.945,0.026c-0.155,0.125-0.358-0.047-0.499,0.027
		c-0.31-0.001-0.627-0.091-0.902-0.038c-0.179-0.059-0.435-0.003-0.581-0.007c-0.807-0.053-1.503-0.015-2.241-0.267
		c0.013,0.039-0.015,0.059-0.037,0.08C9.773,2.479,9.662,2.398,9.571,2.295C9.334,2.396,9.192,2.084,8.984,2.214
		C8.68,2.113,8.301,2.279,8.019,2.419c-0.297-0.1-0.541,0.205-0.714,0.386C6.875,2.917,6.99,3.443,6.892,3.766
		c0.242,0.16,0.024,0.619,0.419,0.637C7.48,4.665,7.826,4.8,8.112,4.912c0.964,0.81,2.416,0.441,3.619,0.656
		c0.437-0.127,0.89-0.018,1.325-0.033l0.111-0.082c0.268-0.033,0.62-0.013,0.903,0.069c0.215-0.139,0.439,0.062,0.652-0.075
		c1.554,0.05,2.798-0.228,4.263-0.346c0.103-0.063,0.275-0.073,0.354-0.059c0.347-0.007,0.608-0.195,0.955-0.206
		c0.737-0.155,1.466-0.312,2.203-0.468c0.702-0.279,1.469-0.377,2.181-0.669c0.114-0.035,0.349-0.133,0.427,0.054
		c-0.124,0.229-0.011,0.525-0.192,0.718c0.09,0.237-0.119,0.511-0.039,0.738c-0.163,0.172-0.256,0.43-0.195,0.641l-0.112,0.12
		c-0.063,0.1-0.016,0.28-0.02,0.35c-0.037,0.399-0.117,0.878-0.16,1.335c-0.241,0.217-0.156,0.552-0.355,0.756
		c0.132,0.273-0.028,0.591,0.046,0.858c-0.046,0.042-0.082,0.113-0.152,0.085c0.092,0.266,0.106,0.683-0.105,0.937
		c-0.078,0.487-0.026,1.115-0.223,1.61c-0.302,0.501-0.128,1.177-0.026,1.674c-0.233,0.865-0.117,1.953-0.349,2.866
		c0.115,0.228-0.19,0.456,0,0.698c-0.184,0.187,0.075,0.509-0.167,0.669c0.061,0.193-0.004,0.48,0.033,0.663
		c-0.053,0.196-0.042,0.418-0.078,0.625c0.075-0.017,0.141,0,0.194,0.065l-0.073,0.08c-0.283,0.306-0.144,0.918-0.195,1.377
		l0.039-0.004l-0.004-0.074c0.018-0.023,0.036-0.05,0.075-0.043c0.042,0.251-0.019,0.546-0.032,0.814
		c-0.026,0.102-0.156,0.201-0.064,0.285c-0.048,0.021-0.033,0.078-0.033,0.115l0.037-0.037c0.256,0.245-0.117,0.496,0.082,0.769
		c-0.075,0.258,0.103,0.493,0.115,0.779c-0.173,0.203,0.228,0.418-0.002,0.658c0.134,0.134-0.072,0.283,0.061,0.422
		c0.002,0.183,0.047,0.336-0.007,0.548c0.135,0.18-0.073,0.431-0.043,0.661c0.025,0.116,0.26,0.317,0.021,0.35
		c0.192,0.039,0.11,0.273,0.253,0.373l-0.149,0.125c0.128,0.031,0.121,0.282,0.284,0.263c-0.007,0.05,0.038,0.128-0.028,0.157
		c-0.039,0.014-0.061-0.015-0.082-0.032l0.002,0.035c0.017,0.117-0.185,0.32,0.059,0.349c-0.132,0.037-0.117,0.221-0.074,0.327
		l0.083-0.096c0.105,0.071,0.064,0.221,0.136,0.303l0.082-0.082l0.163,0.146c-0.16,0.075,0.027,0.279-0.133,0.354
		c0.269,0.022-0.038,0.247,0.133,0.349c-0.208,0.115,0.084,0.299-0.055,0.395c-0.018,0.058,0.052,0.071,0.082,0.112l-0.112,0.082
		l0.037-0.004c0.045,0.067,0.164,0.089,0.126,0.188c-0.018,0.021-0.035,0.05-0.072,0.043c0.156,0.032,0.031,0.238,0.128,0.264
		c0.21-0.043-0.106-0.196,0.104-0.278c0.096-0.04,0.128,0.075,0.199,0.109c0.001,0.065-0.073,0.111-0.11,0.159l0.039,0.038
		c0.024,0.053-0.043,0.078-0.069,0.121c0.094,0.167-0.019,0.569,0.336,0.451c-0.052,0.104,0.121,0.149,0.011,0.235l0.078-0.004
		l-0.004-0.078c0.019-0.021,0.036-0.05,0.075-0.043c0.067,0.027,0.037,0.105,0.044,0.149h0.079
		c-0.116-0.142,0.016-0.284,0.016-0.438c0.057-0.024,0.078,0.054,0.119,0.078c-0.018,0.023-0.034,0.05-0.076,0.043l0.009,0.117
		l0.037-0.042c0.249-0.068,0.169,0.224,0.251,0.334l0.146-0.16c0.13,0.089,0.091,0.258,0.134,0.381l0.039-0.041
		c0.021,0.021,0.05,0.037,0.043,0.075c-0.008-0.075,0.011-0.184,0.113-0.198l0.039,0.036c-0.048,0.024-0.035,0.082-0.033,0.117
		c0.273-0.102-0.108-0.377,0.206-0.475c0.091,0.061,0.137,0.176,0.283,0.18c0,0.037,0.011,0.096-0.036,0.115
		c-0.078,0.015-0.135-0.011-0.195-0.03l0.044,0.115c0.071,0.064,0.225,0.02,0.272,0.027c0.025-0.067-0.043-0.105-0.085-0.149
		c0.323-0.086-0.018-0.333,0.206-0.479c0.093,0.071,0.093,0.112,0.199,0.146c0-0.041-0.013-0.096,0.032-0.119l-0.146-0.071
		l0.15-0.096l-0.045-0.112c0.045-0.071,0.112-0.098,0.19-0.091c0.082,0.043,0.093,0.121,0.05,0.192
		c0.208,0.11-0.095,0.273,0.021,0.395c0.122,0.108,0.018,0.136-0.027,0.231c-0.065,0.061-0.2,0.067-0.269,0.018
		c0.11,0.05-0.026,0.125-0.033,0.153c0.151-0.093,0.247-0.119,0.421-0.059c-0.062-0.095,0.109-0.16-0.01-0.231
		c0.042-0.265,0.024-0.602-0.045-0.859l0.004,0.078c-0.089,0.188-0.255-0.018-0.348,0.054c0.015,0.05-0.022,0.128,0.049,0.153
		c-0.015,0.067-0.086,0.199-0.188,0.174c-0.171-0.123-0.026-0.316-0.024-0.473c-0.281-0.351,0.277-0.246,0.327-0.441
		c-0.156-0.194-0.164,0.063-0.31,0.094c-0.093-0.131-0.007-0.213-0.095-0.343c0.136-0.182,0.023-0.487,0.043-0.673
		c-0.02-0.174,0.095-0.351-0.065-0.496c0.035-0.071,0.1-0.075,0.146-0.125c-0.213-0.055-0.085-0.334-0.021-0.466
		c-0.011-0.156-0.026-0.422-0.037-0.612c0.007-0.007,0.016-0.018,0.026-0.026c-0.009-0.011-0.02-0.007-0.03-0.014
		c0-0.004,0-0.011,0-0.015l-0.037-0.035c0.036-0.032,0.05-0.1,0.112-0.082c-0.153-0.331,0.094-0.605-0.016-0.968
		c0.135-0.249-0.011-0.591,0.07-0.865c-0.12-0.104,0.047-0.189-0.018-0.31c-0.033-0.27-0.014-0.618,0.067-0.893
		c-0.02-0.687,0.021-1.427,0.118-2.12l-0.039-0.036c0.096-1.091,0.21-2.031,0.306-3.126c-0.128-0.1,0.059-0.178,0.063-0.271
		c-0.175-0.329,0.243-0.545,0.187-0.872c-0.011-0.185,0.149-0.473-0.03-0.541c0.091-0.102-0.052-0.276,0.098-0.354l-0.041-0.046
		c-0.005-0.085-0.03-0.182,0.066-0.237c-0.015-0.045,0.021-0.125-0.049-0.151c0.017-0.049,0.075-0.042,0.114-0.044l-0.123-0.149
		l0.036-0.04c-0.104-0.13,0.167-0.162,0.143-0.278c-0.188-0.048,0.018-0.215-0.058-0.344c0.337-0.059,0.061-0.457,0.235-0.641
		l-0.036,0.001c-0.053-0.019-0.042-0.076-0.046-0.115c0.037-0.031,0.054-0.099,0.11-0.084c0.028-0.066-0.043-0.101-0.086-0.15
		c0.021-0.02,0.039-0.051,0.075-0.042l-0.086-0.19c0.218-0.262,0.14-0.626,0.3-0.905c-0.058-0.153,0.067-0.374,0.01-0.514
		c0.019-0.024,0.047-0.042,0.036-0.08c0.074-0.273,0.094-0.606,0.228-0.825c0.061,0.073,0.075,0.171,0.102,0.266l0.037-0.042
		c-0.093-0.089,0.097-0.226,0.021-0.31l0.037-0.04c0.008-0.04-0.022-0.059-0.041-0.077l0.198-0.078
		c-0.071,0.115-0.18,0.213-0.052,0.398c0.063-0.111,0.018-0.282,0.188-0.32l-0.082-0.073c0.002-0.029-0.005-0.063-0.009-0.092
		c-0.009,0.025-0.023,0.047-0.037,0.07c-0.095,0.024-0.077-0.113-0.182-0.1c-0.048-0.2,0.102-0.304,0.091-0.481
		c0.332,0.04,0.071-0.322,0.247-0.437c-0.143-0.206-0.009-0.474,0.011-0.71l0.093-0.053l-0.11-0.062
		c-0.008-0.053-0.009-0.107-0.043-0.151l-0.071,0.091l-0.043-0.045c-0.024-0.054,0.043-0.08,0.071-0.12
		c0.097-0.019,0.139-0.097,0.171-0.191c0,0.043,0.025,0.115-0.032,0.137l0.039-0.002c0.038-0.051,0.104-0.093,0.071-0.159
		c-0.037-0.012-0.053-0.011-0.063-0.003c0.033-0.111,0.05-0.24,0.096-0.335l-0.041-0.038c0.091-0.158,0.116-0.392,0.087-0.544
		l0.146-0.202l-0.043-0.039c0.076-0.061-0.011-0.191,0.104-0.246c0.021-0.176,0.395-0.4,0.202-0.593
		c0.296-0.045,0.025-0.398,0.244-0.477c-0.052-0.066-0.045-0.144,0.03-0.197c0.064-0.022,0.149-0.086,0.201-0.01
		c-0.063,0.092,0.007,0.301-0.19,0.283c0.139,0.061,0.16-0.125,0.275-0.093c0.102,0.014,0.091,0.209,0.088,0.151
		c0.245-0.257,0.021-0.718,0.377-0.921c-0.011-0.146,0.212-0.186,0.174-0.36l-0.074,0.083c-0.42-0.288,0.281-0.537,0.262-0.906
		l-0.145,0.164c-0.05-0.018-0.043-0.077-0.043-0.115c0.128-0.085,0.061-0.166-0.024-0.239c0.178-0.138,0.219-0.452,0.352-0.574
		C30.519,3.297,30.586,3.469,30.419,3.575z"/>
	<polygon fill="#818181" points="28.716,9.544 28.754,9.504 28.746,9.388 	"/>
	<path fill="#818181" d="M28.369,10.46c0.052,0.073,0.055,0.127,0.052,0.18c0-0.038,0.003-0.076,0.037-0.107
		c0.041-0.002,0.102-0.014,0.119,0.033l0.034-0.118C28.512,10.424,28.462,10.555,28.369,10.46z"/>
	<path fill="#818181" d="M21.041,11.163c0.043,0.046,0.032,0.171,0.127,0.157C21.097,11.256,21.138,11.185,21.041,11.163z"/>
	<path fill="#818181" d="M13.835,11.792l0.039,0.038l-0.106,0.16l0.04,0.035c-0.066,0.053-0.182,0.059-0.188,0.167
		c0.038-0.014,0.06,0.014,0.08,0.036c-0.224,0.184-0.317,0.595-0.306,0.79c0.083-0.063,0.123-0.22,0.262-0.169
		c0.04-0.158-0.058-0.212,0.021-0.35c0.039-0.013,0.06,0.014,0.082,0.033c0.014-0.048,0.075-0.042,0.113-0.042
		c0.078-0.161,0.094-0.261,0.016-0.429c0.221-0.051,0.033-0.312,0.13-0.443C13.998,11.764,13.817,11.63,13.835,11.792z"/>
	<path fill="#818181" d="M28.417,11.397c-0.063,0.033-0.096-0.053-0.156-0.04c-0.011,0.127-0.13,0.27,0.023,0.356l0.037-0.04
		l-0.043-0.035c0.004-0.146,0.117-0.191,0.188-0.292L28.417,11.397z"/>
	<path fill="#818181" d="M21.76,12.993c0-0.165-0.018-0.319-0.137-0.417L21.76,12.993z"/>
	<path fill="#818181" d="M28.072,12.849c-0.017,0.255-0.117,0.49-0.114,0.752l0.114-0.005c0.007-0.04-0.021-0.059-0.043-0.077
		c0.004-0.137,0.117-0.133,0.18-0.241l-0.115-0.073C28.044,13.104,28.183,12.96,28.072,12.849z"/>
	<path fill="#818181" d="M13.306,13.448c-0.014-0.068,0.021-0.184-0.049-0.191C13.298,13.332,13.13,13.448,13.306,13.448z"/>
	<path fill="#818181" d="M13.087,13.894c0.064,0.132-0.271,0.345,0.019,0.349c0.018-0.215,0.042-0.464,0.249-0.594
		C13.162,13.502,13.098,13.719,13.087,13.894z"/>
	<path fill="#818181" d="M12.963,14.444c-0.057,0.064-0.049,0.217,0.011,0.231C13.02,14.614,13.032,14.499,12.963,14.444z"/>
	<path fill="#818181" d="M27.843,15.049c0.115-0.113,0.065-0.379,0.013-0.476C27.854,14.73,27.727,14.938,27.843,15.049z"/>
	<path fill="#818181" d="M12.874,14.951c-0.026,0.109-0.082,0.169-0.186,0.205c0.051,0.036,0.095,0.111,0.16,0.078L12.874,14.951z"
		/>
	<path fill="#818181" d="M12.947,15.616c0.098-0.179,0.085-0.39,0.122-0.596c-0.131,0.075-0.022,0.311-0.171,0.405
		C12.913,15.492,12.877,15.581,12.947,15.616z"/>
	<path fill="#818181" d="M12.718,15.668c-0.183,0.076-0.081,0.323-0.094,0.43c0.053-0.264,0.153-0.552,0.149-0.784
		C12.687,15.406,12.709,15.543,12.718,15.668z"/>
	<path fill="#818181" d="M27.737,15.326l0.043,0.039c0,0.038,0.015,0.095-0.032,0.115l0.075-0.002
		c-0.021-0.058,0.046-0.08,0.072-0.12c-0.005-0.087,0.01-0.184-0.09-0.226C27.823,15.206,27.806,15.273,27.737,15.326z"/>
	<polygon fill="#818181" points="21.138,15.096 21.109,15.253 21.146,15.251 	"/>
	<polygon fill="#818181" points="27.401,15.501 27.414,15.694 27.444,15.536 	"/>
	<path fill="#818181" d="M27.813,15.98l0.026-0.234c-0.071-0.277-0.18,0.021-0.146,0.126l0.076-0.006
		C27.821,15.885,27.813,15.941,27.813,15.98z"/>
	<path fill="#818181" d="M12.892,16.005c-0.056,0.247-0.157,0.523-0.153,0.746L12.892,16.005z"/>
	<path fill="#818181" d="M21.109,15.951l0.007,0.155l0.037-0.002l0.038-0.04c-0.047-0.019-0.043-0.076-0.045-0.115L21.109,15.951z"
		/>
	<path fill="#818181" d="M21.607,16.593l-0.009-0.165C21.609,16.503,21.44,16.593,21.607,16.593z"/>
	<path fill="#818181" d="M12.671,17.693l0.075-0.082c-0.003-0.037,0.003-0.096-0.045-0.113L12.671,17.693z"/>
	<path fill="#818181" d="M27.391,18.181c0.037,0.075,0.112,0.132,0.089,0.235c-0.018,0.024-0.035,0.054-0.074,0.043
		c0.05,0.037,0.098,0.113,0.161,0.11l-0.139-0.428L27.391,18.181z"/>
	<path fill="#818181" d="M27.289,19.163c0.067,0.025,0.095-0.054,0.155-0.046C27.395,19.128,27.314,19.096,27.289,19.163z"/>
	<path fill="#818181" d="M27.265,20.135c0.035,0.124-0.05,0.32,0.096,0.352c0-0.181,0.128-0.373,0.011-0.551l0.035-0.043
		c0.015-0.115-0.037-0.199-0.131-0.264c0.117,0.149-0.027,0.342,0.026,0.463L27.265,20.135z"/>
	<path fill="#818181" d="M21.456,15.969c0.024-0.067,0.104-0.035,0.153-0.043c0.037-0.12-0.054-0.229-0.045-0.322
		c-0.05,0.02-0.128,0.012-0.164,0.06c-0.163-0.166,0.164-0.2,0.179-0.318c-0.068,0.033-0.11-0.033-0.16-0.068
		c-0.013-0.038,0.018-0.059,0.035-0.08c0.05,0.007,0.125-0.035,0.156,0.031c-0.039-0.141,0.05-0.33-0.1-0.419
		c0-0.483-0.092-0.855-0.152-1.355c-0.064-0.344-0.249-0.538-0.199-0.892c-0.264-0.391-0.346-0.852-0.612-1.255
		c-0.093-0.111-0.182-0.317-0.1-0.421c0.262,0.163,0.316,0.488,0.504,0.72c0.048-0.178-0.134-0.362-0.025-0.471
		c0.004-0.04-0.023-0.059-0.044-0.077c0.113-0.422-0.397-0.541-0.513-0.904c0.037-0.031,0.052-0.099,0.113-0.083
		c-0.021-0.019-0.039-0.046-0.081-0.033c-0.128,0.113-0.253-0.045-0.353-0.137c0.342-0.242-0.194-0.157-0.188-0.388
		c0.167-0.162,0.26,0.13,0.438,0.015c-0.106-0.168-0.392-0.269-0.608-0.318c-0.192-0.153-0.537,0.051-0.635-0.273
		c-0.443-0.115-0.779-0.434-1.095-0.718c0.017-0.021,0.043-0.04,0.034-0.078c-0.275-0.101-0.563-0.212-0.797-0.432l0.035-0.041
		c-0.078-0.034-0.137-0.076-0.236-0.065c-0.039-0.045-0.095-0.149-0.046-0.191l-0.506-0.05c-0.332-0.215-0.773-0.11-1.077-0.368
		c-0.155-0.205-0.437-0.053-0.661-0.08l-0.08-0.073c-0.589,0.042-1.19,0.014-1.662,0.284c-1.443,0.346-2.562,1.29-3.365,2.59
		c-0.288,0.423-0.317,0.947-0.515,1.394c-0.132,0.25-0.213,0.514-0.266,0.787c-0.342,0.115-0.302,0.521-0.543,0.699
		c0.031,0.191,0.006,0.463-0.08,0.662c0.088,0.189-0.115,0.375-0.082,0.596C8.063,14,8.083,14.215,8.061,14.319
		c0.024,0.058-0.045,0.08-0.08,0.12c0.035,0.678-0.224,1.262-0.247,1.922c0.013,0.193,0.195,0.395,0.033,0.578
		c0.059,0.206,0.115,0.513-0.002,0.704c-0.102,0.927,0.053,1.859,0.343,2.742c-0.018,0.021-0.035,0.048-0.077,0.04
		c-0.028-0.031-0.073-0.057-0.101-0.092l0.332,0.786c0.248,0.441,0.615,0.829,0.853,1.271c0.311,0.199,0.291,0.587,0.583,0.754
		c-0.007,0.057,0.092,0.11,0.007,0.153h0.077c1.163,0.91,2.409,1.568,3.895,1.501c0.224,0.054,0.407-0.167,0.59,0.007
		c-0.092,0.071-0.229,0.043-0.344,0.058c0.302,0.037,0.669,0.021,0.966-0.054c0.308-0.024,0.668,0.032,0.927-0.203
		c0.222-0.003,0.396-0.206,0.612-0.11c0.243-0.063,0.529-0.263,0.771-0.117c0.601-0.16,1.072-0.555,1.633-0.797
		c0.381-0.281,0.782-0.729,1.111-1.106c-0.241,0.19-0.578,0.402-0.702,0.658c-0.067-0.007-0.153,0.035-0.194-0.028l0.509-0.608
		l-0.041-0.037l0.182-0.279l-0.041-0.038c0.586-0.788,0.945-1.713,1.223-2.644c0.039-0.126,0.032-0.32,0.134-0.395
		c0.065-0.203,0.129-0.418,0.197-0.632l0.117,0.034c0.167-0.493,0.197-1.016,0.267-1.53c-0.16,0.112,0.015,0.276-0.132,0.429
		c-0.031-0.265-0.053-0.635-0.012-0.936c0.103-0.077-0.088-0.392,0.141-0.278c0.018-0.021,0.044-0.042,0.035-0.08
		C21.497,16.171,21.504,16.014,21.456,15.969z M11.903,19.953l0.078-0.007l0.007,0.152C11.903,20.116,11.905,20.01,11.903,19.953z
		 M12.089,20.529c-0.015-0.085-0.153-0.156-0.053-0.238C12.052,20.369,12.189,20.44,12.089,20.529z M18.245,15.678
		c-0.443,0.925-0.299,2.164-0.799,3.122c-0.025,0.242-0.385,0.417-0.235,0.673c-0.362,0.455-0.473,0.893-0.867,1.329
		c-0.224,0.381-0.517,0.669-0.84,0.979c-0.541,0.19-0.989,0.69-1.603,0.598c-0.203,0.187-0.281-0.385-0.441-0.093
		c-0.246-0.231-0.466-0.42-0.618-0.713l-0.115,0.042c-0.288-0.284-0.29-0.697-0.519-1.014c0.076-0.18-0.009-0.366-0.106-0.509
		c0.051,0.046,0.059-0.206-0.014-0.271c-0.111-0.071,0.033-0.139-0.013-0.231c0.502-0.011,0.897-0.242,1.435-0.19
		c0.269-0.183,0.63-0.306,0.78-0.587c-0.082-0.258-0.299,0.02-0.382,0.061l-0.073,0.082c-0.115-0.128-0.127,0.13-0.27,0.052
		c0.075-0.093,0.186-0.175,0.217-0.283c-0.111-0.119-0.287,0.075-0.474,0.025c-0.306-0.31-0.629-0.566-0.634-1.021
		c-0.028,0.032-0.071,0.069-0.092,0.11c-0.117-0.555,0.062-1.162,0.003-1.701c-0.002,0.136-0.111,0.276-0.172,0.356
		c0.016-0.058,0.042-0.117,0.026-0.193c-0.056-0.2,0.143-0.447,0.042-0.662c0.038-0.196,0.213-0.379,0.086-0.593l-0.077,0.002
		c0.06-0.111,0.256-0.253,0.129-0.431c0.077-0.198,0.104-0.414,0.238-0.594c-0.018-0.019-0.049-0.037-0.042-0.077l0.038-0.04
		c-0.188-0.184,0.195-0.302,0.049-0.479c0.149-0.113-0.021-0.416,0.21-0.435c-0.051-0.019-0.042-0.076-0.045-0.115
		c0.078-0.001,0.115-0.082,0.158-0.125c-0.087-0.198,0.115-0.395,0.084-0.623c0.139-0.144-0.014-0.456,0.245-0.488
		c-0.01-0.164,0.054-0.4,0.204-0.554l0.085,0.151c0.093-0.063,0.142-0.211,0.213-0.322l-0.082-0.073l0.037-0.04l-0.038-0.038
		l0.107-0.16c-0.008,0.04,0.023,0.058,0.042,0.076l0.362-0.444c-0.02-0.018-0.038-0.045-0.078-0.037
		c0.149-0.306,0.539-0.405,0.669-0.663l0.235,0.025c0.012,0.213-0.317,0.211-0.363,0.455c-0.156,0.145-0.364,0.205-0.372,0.449
		c-0.214,0.099-0.214,0.283-0.36,0.446c0.146,0.204-0.333,0.133-0.137,0.353c-0.04,0.149-0.016,0.271,0.099,0.383
		c0.067,0.036,0.104-0.045,0.149-0.085c-0.144-0.155,0.179-0.271,0.172-0.397c0.084-0.053,0.188-0.115,0.223-0.205l-0.04-0.038
		l0.115-0.16l-0.049-0.037c0.033-0.107,0.276-0.259,0.071-0.313c0.313,0.08,0.348-0.357,0.631-0.497
		c0.164-0.184,0.398-0.198,0.579-0.033c0.257,0.065,0.325,0.477,0.572,0.395c0.562,0.33,0.596,0.977,1.081,1.387
		c-0.021,0.166,0.158,0.233,0.178,0.377c0.296,1.038,0.463,2.124,0.367,3.211C18.338,15.385,18.092,15.532,18.245,15.678z
		 M21.157,16.183c-0.066,0.05-0.082,0.12-0.066,0.196c0.021,0.016,0.04,0.043,0.079,0.035l0.072-0.082
		c-0.018,0.213-0.012,0.282-0.208,0.41c0.05,0.033,0.093,0.11,0.16,0.104c-0.007,0.05,0.037,0.127-0.033,0.157l-0.079-0.071
		c-0.037,0.05-0.101,0.089-0.067,0.156l0.078,0.074l0.041,0.034c-0.167-0.03-0.1,0.164-0.141,0.242
		c0.041,0.085,0.097-0.015,0.153-0.007c-0.03,0.152-0.061,0.313-0.091,0.469c-0.149-0.081,0.114-0.249-0.093-0.265
		c-0.026,0.037-0.096,0.061-0.071,0.119l0.043,0.037l-0.074,0.082c0.042,0.104,0.204,0.047,0.163,0.186
		c-0.067,0.003-0.1,0.081-0.147,0.124c0.006,0.064,0.084,0.11,0.126,0.156l0.075-0.003c-0.046,0.05-0.114,0.053-0.149,0.124
		c0.089,0.188,0.063,0.429-0.082,0.582c0.151,0.112-0.096,0.199-0.063,0.272c-0.019,0.022-0.043,0.042-0.036,0.08
		c0.015,0.059,0.004,0.193-0.061,0.275c-0.117-0.024-0.182,0.057-0.273,0.093c0.014,0.104,0.139,0.098,0.21,0.142
		c-0.268,0.239-0.242,0.568-0.552,0.776c0.108,0.18-0.18,0.271-0.015,0.427c-0.024,0.281-0.366,0.242-0.321,0.52
		c-0.056,0.024-0.112,0.057-0.19,0.05c0.167-0.327,0.206-0.708,0.489-0.996c0.126-0.184,0.016-0.435,0.2-0.591l-0.042-0.046
		c0.05-0.168,0.193-0.203,0.174-0.396c0.228-0.284-0.003-0.572,0.274-0.829c-0.11-0.078,0.021-0.185,0.024-0.271
		c0.238-0.051-0.011-0.341,0.171-0.442c-0.035-0.262,0.05-0.482,0.117-0.706c-0.061-0.218,0.058-0.516-0.003-0.733
		c0.092-0.277,0.074-0.587,0.106-0.869l-0.037-0.038l0.033-0.815c0.039-0.011,0.061,0.017,0.082,0.035l0.036-0.04
		c0.154,0.177-0.1,0.47,0.113,0.65c-0.018,0.04-0.011,0.173,0.054,0.229C21.212,15.925,21.28,16.153,21.157,16.183z"/>
	<path fill="#818181" d="M21.59,15.53c0.012-0.013,0.02-0.024,0.035-0.033l-0.039,0.001C21.59,15.512,21.59,15.519,21.59,15.53z"/>
	<path fill="#818181" d="M27.289,20.604c-0.018,0.024-0.044,0.04-0.037,0.081c0.039-0.011,0.061,0.015,0.08,0.036l0.037-0.043
		c0.041-0.106-0.071-0.074-0.121-0.106L27.289,20.604z"/>
	<path fill="#818181" d="M20.798,20.992l0.034-0.121C20.792,20.906,20.753,21.092,20.798,20.992z"/>
	<path fill="#818181" d="M27.085,21.315c0.078,0.004,0.135-0.028,0.201-0.05C27.204,21.191,27.103,21.273,27.085,21.315z"/>
	<polygon fill="#818181" points="27.447,21.412 27.488,21.408 27.478,21.216 	"/>
	<path fill="#818181" d="M20.224,22.038c-0.06,0.119-0.214,0.146-0.259,0.245l0.041,0.039
		C20.138,22.287,20.172,22.109,20.224,22.038z"/>
	<path fill="#818181" d="M27.234,22.632l-0.082-0.071c0.018-0.021,0.037-0.048,0.076-0.04c-0.016-0.086,0.104-0.221-0.055-0.27
		l0.039-0.039c-0.023-0.05-0.08-0.035-0.117-0.031c-0.059,0.167,0.161,0.299-0.017,0.425C27.126,22.61,27.2,22.568,27.234,22.632z"
		/>
	<path fill="#818181" d="M27.044,23.454l0.039-0.039c0.039,0.03,0.063,0.094,0.117,0.071l-0.007-0.116l-0.153,0.011L27.044,23.454z"
		/>
	<path fill="#818181" d="M27.037,23.97c0.249-0.024,0.13-0.249,0.096-0.362c0.035,0.085-0.032,0.156-0.11,0.131
		C27.065,23.831,26.925,23.898,27.037,23.97z"/>
	<path fill="#818181" d="M27.044,24.162c0.039,0.048,0.112,0.082,0.085,0.149c0.058-0.225,0.058-0.225-0.163-0.146L27.044,24.162z"
		/>
	<path fill="#818181" d="M26.979,24.436c0.071,0.036,0.075,0.104,0.125,0.15c-0.011-0.04,0.018-0.058,0.037-0.079
		C27.107,24.439,27.065,24.336,26.979,24.436z"/>
	<path fill="#818181" d="M27.088,24.974c0.008-0.075,0.139-0.164,0.03-0.231c0.019-0.021,0.043-0.043,0.032-0.082
		C26.891,24.664,27.168,24.846,27.088,24.974z"/>
	<path fill="#818181" d="M27.261,26.717c-0.014-0.078,0.021-0.175-0.05-0.231c-0.039-0.007-0.057,0.025-0.074,0.043l-0.041-0.037
		c-0.108,0.152-0.219-0.093-0.31,0.02l0.083,0.07c0.036,0.008,0.054-0.022,0.075-0.042c0.05,0.074,0.128,0.082,0.193,0.028
		c0.069,0.046,0.038,0.135,0.088,0.192L27.261,26.717z"/>
	<path fill="#818181" d="M26.775,27.09l0.041,0.04c0.059,0.024,0.074-0.054,0.113-0.086c0.032,0.036,0.104,0.052,0.084,0.119
		c0.044-0.021,0.037-0.089,0.034-0.126C27.063,26.823,26.778,26.955,26.775,27.09z"/>
	<path fill="#818181" d="M26.843,27.563c-0.009-0.124,0.156-0.106,0.182-0.167c-0.048-0.064-0.134-0.021-0.194-0.067
		C26.773,27.393,26.782,27.546,26.843,27.563z"/>
	<polygon fill="#818181" points="27.813,27.471 27.775,27.471 27.786,27.628 	"/>
	<path fill="#818181" d="M26.775,28.496l0.154-0.011c0.018-0.019,0.047-0.038,0.036-0.078
		C26.895,28.421,26.758,28.382,26.775,28.496z"/>
	<polygon fill="#818181" points="27.778,28.955 27.734,28.916 27.786,29.068 	"/>
	<path fill="#818181" d="M27.832,29.958c0.1-0.149-0.046-0.316-0.063-0.424C27.815,29.67,27.709,29.848,27.832,29.958z"/>
	<path fill="#818181" d="M27.38,29.674c-0.037-0.008-0.055,0.021-0.074,0.042c-0.023-0.021-0.041-0.046-0.079-0.037
		c-0.057,0.037-0.05,0.162,0.011,0.195c0.088-0.009,0.184,0.008,0.229-0.094C27.479,29.724,27.414,29.709,27.38,29.674z"/>
	<path fill="#818181" d="M4.432,25.08c0.04-0.004,0.099-0.015,0.118,0.032l0.109-0.171l-0.04-0.036
		c-0.002-0.039-0.014-0.098,0.031-0.12c-0.099-0.032-0.247,0.053-0.339,0.139l0.087,0.193L4.432,25.08z"/>
	<path fill="#818181" d="M20.328,28.813c-0.489-0.602-1.272-0.747-1.931-1.057c-0.189-0.175-0.487-0.274-0.761-0.316
		c-0.566-0.292-1.197-0.381-1.821-0.563c-0.33-0.039-0.658-0.187-0.911-0.377l-0.071,0.121c-0.737-0.075-1.497-0.328-2.199-0.231
		c-0.242-0.199-0.677-0.011-0.796-0.392c-0.071,0.487-0.47-0.082-0.683,0.228c-0.324-0.26-0.739,0.296-1.062-0.096
		c-0.448,0.142-0.938-0.008-1.361,0.071c-0.223-0.008-0.334,0.059-0.542-0.008c-0.153,0.201-0.35-0.206-0.419,0.1
		c-0.242-0.19-0.875,0.064-1.083,0.157c-0.481-0.104-0.838,0.271-1.354,0.234c-0.137-0.011-0.219,0.246-0.344,0.057
		c-0.004-0.085-0.021-0.183,0.025-0.241l-0.038,0.003c0.025,0.11-0.153,0.219-0.061,0.32c-0.24,0.374-0.419,0.307-0.752,0.448
		c-0.02-0.039-0.027-0.172,0.028-0.231l0.08,0.071c0.04,0.008,0.058-0.021,0.076-0.041c0.007-0.037-0.022-0.057-0.042-0.078
		l-0.039,0.041c-0.085-0.003-0.12-0.089-0.16-0.146l-0.04,0.043l-0.091-0.075c0.104-0.071-0.04-0.228,0.111-0.284
		c0.022,0.046,0.078,0.037,0.118,0.031l-0.005-0.078l-0.115,0.009c-0.1-0.071,0-0.176-0.014-0.271l-0.125,0.043
		c-0.166-0.203,0.243-0.013,0.151-0.24H4.06c0.022,0.061-0.042,0.082-0.07,0.121c-0.091-0.043-0.093-0.121-0.137-0.185
		c0.065-0.196,0.144-0.396,0.21-0.591c0.037,0.152-0.014,0.444,0.07,0.576c-0.033-0.249,0.022-0.466,0.04-0.701L4.1,25.368
		c-0.431-0.277,0.295-0.104,0.21-0.444c-0.115-0.16,0.009-0.344,0.009-0.506l-0.076,0.004c-0.104,0.104,0.085,0.363-0.136,0.355
		c-0.059-0.142,0.068-0.362,0.011-0.505c0.067,0.007,0.153-0.036,0.195,0.028c0.042-0.115,0.045-0.253,0.057-0.392
		c-0.059-0.003-0.111,0.097-0.153,0.011c0.065-0.032,0.023-0.106,0.03-0.156c0.064-0.071,0.046-0.235,0.184-0.203
		c0.083-0.401,0.04-0.836,0.245-1.183c0.138,0.022,0.012,0.201,0.166,0.187c0.083-0.074,0.125-0.164,0.101-0.277
		c-0.044,0.032-0.108,0.124-0.151,0.046c-0.033-0.063,0.033-0.108,0.067-0.156c0.324,0.106,0.008-0.236,0.173-0.359H4.993
		c0.042,0.106-0.051,0.171-0.104,0.242c-0.085,0.021-0.053-0.086-0.124-0.11c-0.132,0.093-0.16-0.117-0.266,0.093l-0.04-0.04
		c-0.003-0.124-0.042-0.277,0.098-0.352c0.04-0.011,0.059,0.014,0.077,0.033c0.013,0.038-0.014,0.059-0.032,0.082l0.04,0.037
		c-0.015-0.078,0.013-0.139,0.028-0.197c-0.078,0.015-0.146,0-0.197-0.067c0.001-0.115,0.118-0.119,0.184-0.173l-0.079,0.006
		c-0.033-0.266-0.012-0.591,0.071-0.859c0-0.175,0.292-0.143,0.173-0.359c-0.075,0.037-0.128,0.135-0.192,0.013
		c0.044-0.071,0.039-0.188,0.144-0.199l0.08,0.07l0.027-0.234c-0.04-0.007-0.058,0.026-0.076,0.045
		c-0.068-0.04-0.035-0.14-0.045-0.203c0.06-0.121,0.111,0.05,0.193-0.015c0.028-0.377,0.013-0.647,0.101-1.01
		c-0.024-0.058-0.086-0.143-0.012-0.196L5,18.391l0.073-0.085c-0.092-0.292,0.106-0.584,0.069-0.903
		c0.089-0.47,0.031-1.085,0.235-1.571c0.188,0.04-0.016,0.233,0.057,0.306c-0.005,0.087,0.038,0.183-0.026,0.244
		c0.083-0.073,0.297-0.026,0.257-0.217c-0.106-0.025-0.199-0.136-0.17-0.262c0.026-0.07,0.106-0.037,0.153-0.047l-0.005-0.076
		c-0.066,0.042-0.166-0.242-0.233-0.025c-0.107-0.026-0.115-0.179-0.168-0.264c0.279-0.014,0.081-0.324,0.168-0.475
		c0.002-0.125-0.047-0.365,0.019-0.388c0.07-0.12-0.028-0.346,0.132-0.404c0.068,0.027,0.037,0.105,0.047,0.153l0.153-0.007
		c-0.007-0.155,0.149-0.3,0.055-0.43l0.037-0.04c-0.132-0.108,0.076-0.238-0.059-0.345l0.111-0.125l-0.082-0.073
		c0.217-0.155-0.149-0.448,0.127-0.51c-0.127-0.051-0.035-0.113-0.009-0.2c-0.137-0.179,0.061-0.315,0.009-0.507
		c-0.058-0.207,0.064-0.488,0.002-0.696c0.008-0.213,0.005-0.424,0.04-0.668c-0.082-0.113,0.025-0.291-0.02-0.388
		c0.134-0.337-0.026-0.82,0.054-1.124C5.915,9.124,6.073,9,6.165,8.896c0.062-0.101,0.014-0.281,0.02-0.35
		C6.177,8.42,6.19,8.284,6.09,8.203c0.047-0.169,0.018-0.36,0.125-0.51L6.358,8.11L6.347,7.957C6.538,7.724,6.224,7.46,6.591,7.274
		c-0.264-0.266-0.84-0.158-0.934-0.608c0.02-0.02,0.038-0.05,0.077-0.042C5.521,6.664,5.346,6.598,5.15,6.579
		c0.001-0.137,0.16-0.095,0.224-0.167C5.221,6.266,4.966,6.414,4.787,6.327C4.915,6.194,4.694,6.226,4.7,6.101l0.037-0.04
		C4.88,6.198,4.96,5.922,5.039,5.888C4.887,5.984,4.854,5.735,4.722,5.781C4.689,5.878,4.734,6.003,4.611,6.066
		c-0.093-0.111-0.37-0.047-0.287-0.305C4.053,5.741,4.199,5.403,3.951,5.32C3.833,5.471,3.744,5.378,3.568,5.418
		c-0.16,0.043-0.324-0.08-0.504-0.051c-0.277,0.1-0.487,0.324-0.807,0.313c-0.091,0.091-0.24,0.158-0.339,0.133
		C1.534,6.21,1.392,6.85,1.616,7.389C1.45,7.563,1.802,7.641,1.64,7.825c0.278,0.148,0.009,0.386-0.008,0.581
		C1.887,8.633,1.61,8.91,1.829,9.17C1.716,9.398,1.967,9.792,1.676,9.923c0.042,0.066,0.111,0.064,0.16,0.109
		c0.115,0.362-0.167,0.678,0.012,0.969c-0.217,0.099-0.025,0.263-0.016,0.397C1.76,11.656,1.875,12.005,1.8,12.214l0.04,0.035
		c-0.151,0.262,0.045,0.638-0.106,0.906c0.134,0.13-0.067,0.363,0.069,0.541c0.021,0.422-0.109,0.848-0.047,1.251
		c-0.006,0.292,0.082,0.49-0.038,0.737c0.012,0.417-0.104,0.79-0.061,1.215c-0.113,0.197-0.049,0.504-0.047,0.695
		c-0.022,0.146-0.093,0.268-0.055,0.428c-0.04,0.128-0.02,0.341-0.014,0.438c-0.06,0.126-0.073,0.271-0.052,0.429
		c-0.084,0.438-0.048,0.934-0.159,1.373c0.093,0.866-0.288,1.68-0.25,2.579c0.151,0.109,0.068,0.381,0.104,0.493l-0.071,0.095
		c0.047,0.929-0.193,1.802-0.207,2.654c-0.063,0.119,0.155,0.197-0.026,0.275c0.105,0.32-0.041,0.669-0.022,1.016
		c0.082,0.075-0.054,0.228,0.054,0.306c-0.12,0.619,0.046,1.201-0.018,1.833c-0.101,0.265-0.093,0.574-0.068,0.907
		c-0.103,0.213,0.048,0.316,0.028,0.496c0.251-0.011,0.219,0.271,0.443,0.325c0.252-0.158,0.107-0.505,0.353-0.639
		c0.184,0.192-0.035,0.428-0.002,0.658c0.073,0.114,0.233,0.075,0.279,0.179c0.211-0.038,0.257-0.285,0.325-0.441
		c0.096,0.139-0.048,0.381,0.065,0.502c0.098-0.164,0.213,0.003,0.355-0.061c-0.021-0.019-0.051-0.036-0.043-0.078
		c0.282-0.157,0.02,0.174,0.171,0.267l0.104-0.203c0.04,0,0.099-0.014,0.118,0.032c0.002,0.043,0.014,0.098-0.033,0.121l0.042,0.035
		l0.184-0.167c0.051,0.02,0.042,0.078,0.045,0.115c0.073-0.07,0.126-0.183,0.223-0.2c0.064,0.092,0.064,0.109,0.051,0.228
		c0.042,0.065,0.127,0.024,0.195,0.028c0.07-0.128,0.317-0.221,0.211-0.398c0.009-0.128,0.193-0.146,0.063-0.274l-0.039,0.043
		c-0.038-0.146-0.021-0.02,0-0.184l-0.085,0.112c-0.166,0.143,0.055,0.418-0.332,0.208c0.016-0.021,0.035-0.052,0.073-0.041
		c0.039-0.053,0.08-0.16,0.031-0.199c-0.048-0.149-0.046-0.142,0.082-0.249c0-0.003,0.011,0,0.012,0
		c0-0.007-0.005-0.007,0.026-0.035c0.025,0.007,0.031,0.011,0.042,0.014C3.798,30.62,3.792,30.62,3.78,30.627
		c0.044,0,0.094,0.011,0.064-0.004l0,0c0.004,0.004,0-0.003,0.015-0.018c0.001,0,0.003-0.004,0.003-0.004
		c0.021-0.014,0.047-0.028,0.106-0.042l0.06-0.05l0.109,0.028c0.048,0.016,0.071,0.214,0.073,0.254
		c0.181-0.011,0.471-0.19,0.607-0.022l0.062-0.068c0.013-0.007,0.028-0.007,0.04-0.01c0.002,0,0.011,0,0.007-0.004
		c0.243-0.075,0.495,0.067,0.744-0.064c0.606-0.466,1.916-1.135,2.614-1.316c0.25,0.139,0.464-0.007,0.739,0.075
		c0.275-0.143,0.583,0.057,0.858-0.082c0.825,0.043,1.685,0.032,2.493,0.135c0.158,0.203,0.353-0.117,0.52,0.09
		c0.257-0.086,0.518,0.078,0.78,0.11c0.501-0.063,0.889,0.176,1.374,0.172c0.515,0.19,1.071,0.276,1.62,0.415
		c0.191,0.302,0.552,0.137,0.758,0.388c0.384,0.13,0.771,0.265,1.154,0.401c0.612,0.036,1.324-0.109,1.637-0.668
		c0.149-0.3,0.238-0.634,0.338-0.95C20.298,29.232,20.437,29.036,20.328,28.813z"/>
	<path fill="#818181" d="M6.394,9.553c0.054-0.217,0.002-0.475,0-0.706C6.342,9.101,6.393,9.322,6.394,9.553z"/>
	<path fill="#818181" d="M6.498,10.05C6.485,9.983,6.518,9.864,6.45,9.861C6.347,9.934,6.487,10.021,6.498,10.05z"/>
	<path fill="#818181" d="M5.547,14.663c0.06,0.228-0.055,0.574,0.002,0.774c-0.014-0.078,0.001-0.146,0.066-0.198
		c0.041,0.027,0.064,0.094,0.119,0.073c0.014-0.099,0.065-0.228-0.015-0.31c0.134-0.191-0.2-0.31-0.065-0.501
		C5.549,14.37,5.523,14.586,5.547,14.663z"/>
	<path fill="#818181" d="M5.398,16.887c-0.024,0.077-0.038,0.17-0.106,0.237c-0.014,0.107,0.193,0.21,0.014,0.31
		c0.101,0.207-0.167,0.474,0.111,0.584c0.107,0.21-0.189,0.106-0.191,0.245c0.082-0.103,0.146,0.018,0.24-0.018
		c0.267-0.265-0.18-0.502,0.116-0.747c-0.147-0.054-0.05-0.203,0.023-0.274C5.515,17.124,5.625,16.858,5.398,16.887z"/>
	<path fill="#818181" d="M5.396,16.885C5.396,16.885,5.396,16.887,5.396,16.885c0.011-0.026,0.016-0.061,0.033-0.078
		C5.441,16.845,5.412,16.865,5.396,16.885z"/>
	<path fill="#818181" d="M5.28,18.526c-0.021-0.015-0.05-0.032-0.043-0.071l-0.034,0.039c0.009,0.05-0.024,0.128,0.043,0.153
		l0.039-0.043l0.092,0.112c0.103-0.117,0.115-0.247,0.057-0.39C5.39,18.398,5.396,18.512,5.28,18.526z"/>
	<path fill="#818181" d="M5.193,19.078c-0.014-0.068,0.019-0.19-0.049-0.192l0.012,0.231L5.193,19.078z"/>
	<path fill="#818181" d="M4.766,21.198l-0.009-0.153c-0.027,0.023-0.1,0.082-0.067,0.16L4.766,21.198z"/>
	<path fill="#818181" d="M4.816,21.43c0.02,0.018,0.043,0.053,0.081,0.035l-0.01-0.156C4.82,21.302,4.804,21.369,4.816,21.43z"/>
	<polygon fill="#818181" points="5.019,21.583 5.13,21.451 5.042,21.341 	"/>
	<path fill="#818181" d="M4.665,22.956l0.031-0.196C4.62,22.813,4.616,22.892,4.665,22.956z"/>
	<path fill="#818181" d="M4.875,23.227L4.76,23.229c-0.08,0.121-0.25,0.239-0.172,0.438C4.525,23.361,4.92,23.525,4.875,23.227z"/>
	<path fill="#818181" d="M4.538,24.134c-0.042,0.128,0.077,0.153,0.16,0.146c0.068-0.032,0.026-0.106,0.031-0.156
		c-0.047,0.014-0.125-0.021-0.151,0.05L4.538,24.134z"/>
	<path fill="#818181" d="M4.292,25.318c0.1,0.086-0.041,0.167,0.014,0.271c0.151-0.064,0.005-0.233,0.098-0.314
		C4.367,25.275,4.31,25.269,4.292,25.318z"/>
	<path fill="#818181" d="M4.531,25.422l-0.064,0.273h0.076C4.529,25.596,4.55,25.472,4.531,25.422z"/>
	<path fill="#818181" d="M4.474,25.853c0.015,0.096-0.076,0.195,0.015,0.27C4.51,25.994,4.556,25.934,4.474,25.853z"/>
	<path fill="#818181" d="M4.458,26.24c-0.06,0.128-0.179,0.281-0.133,0.395c0.002,0.078,0.017,0.182-0.028,0.246
		c0.108,0,0.052-0.12,0.147-0.175l-0.041-0.035C4.559,26.553,4.339,26.382,4.458,26.24z"/>
	<path fill="#818181" d="M4.547,31.53c-0.113-0.139,0.007-0.388,0.007-0.583c0.008,0.31-0.351,0.448-0.396,0.723
		c0.113,0.126,0.149-0.146,0.276-0.095c0.021,0.016,0.052,0.034,0.042,0.074l0.078-0.007c0.061-0.108,0.177-0.104,0.179-0.242
		l-0.038,0.004C4.71,31.523,4.583,31.452,4.547,31.53z"/>
</g>
</svg>
