<?xml version="1.0" encoding="utf-8"?>
<!-- Generator: Adobe Illustrator 16.0.3, SVG Export Plug-In . SVG Version: 6.00 Build 0)  -->
<!DOCTYPE svg PUBLIC "-//W3C//DTD SVG 1.1//EN" "http://www.w3.org/Graphics/SVG/1.1/DTD/svg11.dtd">
<svg version="1.1" id="Layer_1" xmlns="http://www.w3.org/2000/svg" xmlns:xlink="http://www.w3.org/1999/xlink" x="0px" y="0px"
	 width="32px" height="32px" viewBox="0 0 32 32" enable-background="new 0 0 32 32" xml:space="preserve">
<g>
	<g>
		<path fill="#818181" d="M17.823,20.716c-0.778,0.828-1.284,1.174-1.631,1.174c-0.241,0-0.323-0.214-0.27-0.696
			c0.162-1.254,1.096-5.287,1.361-6.728c0.267-1.231,0.188-1.871-0.16-1.871c-0.665,0-2.296,1.094-3.364,2.188
			c-0.054,0.083-0.16,0.536-0.105,0.695c0,0.055,0.079,0.081,0.079,0.081c0.641-0.507,1.149-0.802,1.443-0.802
			c0.133,0,0.185,0.213,0.106,0.588c-0.32,1.602-0.854,4.088-1.254,6.143C13.654,23.28,13.893,24,14.454,24
			c0.562,0,2.11-0.749,3.369-2.432c0.051-0.131,0.103-0.637,0.078-0.772C17.901,20.744,17.823,20.716,17.823,20.716z M17.58,8
			c-0.456,0-1.016,0.213-1.282,0.481c-0.105,0.134-0.213,0.533-0.241,0.746c0.028,0.482,0.161,0.749,0.429,0.911
			c0.132,0.104,1.014,0.025,1.201-0.083c0.324-0.212,0.614-0.641,0.669-1.148c0.023-0.238-0.027-0.562-0.134-0.721
			C18.168,8.107,17.953,8,17.58,8z M16,0C7.163,0,0,7.163,0,16s7.163,16,16,16s16-7.163,16-16S24.837,0,16,0z M16,29.5
			C8.544,29.5,2.5,23.456,2.5,16S8.544,2.5,16,2.5S29.5,8.544,29.5,16S23.456,29.5,16,29.5z"/>
	</g>
</g>
</svg>
