<?xml version="1.0" encoding="utf-8"?>
<!-- Generator: Adobe Illustrator 16.0.3, SVG Export Plug-In . SVG Version: 6.00 Build 0)  -->
<!DOCTYPE svg PUBLIC "-//W3C//DTD SVG 1.1//EN" "http://www.w3.org/Graphics/SVG/1.1/DTD/svg11.dtd">
<svg version="1.1" id="Layer_1" xmlns="http://www.w3.org/2000/svg" xmlns:xlink="http://www.w3.org/1999/xlink" x="0px" y="0px"
	 width="32px" height="32px" viewBox="0 0 32 32" enable-background="new 0 0 32 32" xml:space="preserve">
<path fill="#818181" d="M7.22,30.559H1.039V10.779H7.22V30.559z M3.969,8.305H3.925c-2.237,0-3.688-1.512-3.688-3.427
	c0-1.955,1.494-3.435,3.776-3.435c2.28,0,3.682,1.477,3.727,3.43C7.742,6.787,6.293,8.305,3.969,8.305z M31.949,30.559h-7.01V20.322
	c0-2.679-1.094-4.506-3.507-4.506c-1.843,0-2.868,1.231-3.347,2.425c-0.178,0.428-0.149,1.02-0.149,1.614v10.703h-6.945
	c0,0,0.09-18.132,0-19.779h6.945v3.106c0.41-1.359,2.628-3.296,6.169-3.296c4.393,0,7.844,2.845,7.844,8.974V30.559z"/>
</svg>
