<?xml version="1.0" encoding="utf-8"?>
<!-- Generator: Adobe Illustrator 16.0.3, SVG Export Plug-In . SVG Version: 6.00 Build 0)  -->
<!DOCTYPE svg PUBLIC "-//W3C//DTD SVG 1.1//EN" "http://www.w3.org/Graphics/SVG/1.1/DTD/svg11.dtd">
<svg version="1.1" id="Layer_1" xmlns="http://www.w3.org/2000/svg" xmlns:xlink="http://www.w3.org/1999/xlink" x="0px" y="0px"
	 width="32px" height="32px" viewBox="0 0 32 32" enable-background="new 0 0 32 32" xml:space="preserve">
<path fill="#818181" d="M23.969-0.048H8.03c-1.227,0-2.216,1.169-2.216,2.623v26.851c0,1.455,0.989,2.624,2.216,2.624h15.938
	c1.228,0,2.215-1.17,2.215-2.624V2.574C26.185,1.121,25.196-0.048,23.969-0.048z M17.768,27.897h-3.298v-1.905h3.298V27.897z
	 M22.81,22.65c0,0.712-0.517,1.281-1.164,1.281H10.354c-0.645,0-1.161-0.569-1.161-1.281V5.229c0-0.712,0.516-1.281,1.161-1.281
	h11.292c0.647,0,1.164,0.569,1.164,1.281V22.65z"/>
</svg>
