<?xml version="1.0" encoding="utf-8"?>
<!-- Generator: Adobe Illustrator 16.0.3, SVG Export Plug-In . SVG Version: 6.00 Build 0)  -->
<!DOCTYPE svg PUBLIC "-//W3C//DTD SVG 1.1//EN" "http://www.w3.org/Graphics/SVG/1.1/DTD/svg11.dtd">
<svg version="1.1" id="Layer_1" xmlns="http://www.w3.org/2000/svg" xmlns:xlink="http://www.w3.org/1999/xlink" x="0px" y="0px"
	 width="32px" height="32px" viewBox="0 0 32 32" enable-background="new 0 0 32 32" xml:space="preserve">
<path fill="#818181" d="M31.625,16.046l-5.743-2.594l3.573-4.543l-9.73-4.259l-3.576,4.545l-0.04-0.023l-0.034,0.015L12.505,4.65
	L2.774,8.909l3.57,4.538l-0.019,0.007l9.035,3.958l-7.27-3.182l-1.765-0.776v0.004l-0.018-0.008l-5.745,2.595l5.763,2.522v4.62
	l9.462,4.162v-9.526l0.251-0.113l0.07,0.03l0.04-0.023l0.009-0.003l0.146,0.066v9.569l9.576-4.162v-4.628L31.625,16.046z
	 M15.804,9.634v7.646l-8.729-3.824L15.804,9.634z M16.412,17.273V9.639l8.717,3.816L16.412,17.273z"/>
</svg>
