<?xml version="1.0" encoding="utf-8"?>
<!-- Generator: Adobe Illustrator 16.0.3, SVG Export Plug-In . SVG Version: 6.00 Build 0)  -->
<!DOCTYPE svg PUBLIC "-//W3C//DTD SVG 1.1//EN" "http://www.w3.org/Graphics/SVG/1.1/DTD/svg11.dtd">
<svg version="1.1" id="Layer_1" xmlns="http://www.w3.org/2000/svg" xmlns:xlink="http://www.w3.org/1999/xlink" x="0px" y="0px"
	 width="32px" height="32px" viewBox="0 0 32 32" enable-background="new 0 0 32 32" xml:space="preserve">
<path fill="#818181" d="M31.247,18.886L16.75,6.293c-0.472-0.41-1.349-0.863-1.95-1.007L9.782,4.082
	c-0.6-0.145-1.419,0.134-1.818,0.617L7.043,5.818C6.302,5.105,4.909,4.123,2.588,3.681c-0.539-1.053-0.635-1.78-0.635-1.792
	C1.93,1.701,1.76,1.609,1.572,1.684c-0.188,0.078-0.324,0.291-0.303,0.48C1.274,2.207,1.34,2.738,1.673,3.543
	C1.396,3.511,1.107,3.486,0.807,3.47C0.628,3.46,0.434,3.618,0.375,3.821c-0.059,0.204,0.04,0.376,0.22,0.386
	c0.53,0.028,1.021,0.086,1.479,0.165c0.375,0.687,0.919,1.48,1.716,2.307c0.52,0.539,1.039,0.934,1.531,1.23L4.547,8.848
	c-0.398,0.483-0.531,1.359-0.292,1.942l1.988,4.88c0.238,0.586,0.818,1.399,1.29,1.808l14.496,12.594
	c0.472,0.409,1.184,0.348,1.583-0.136l7.767-9.427C31.776,20.025,31.718,19.295,31.247,18.886z M4.33,6.084
	c-0.494-0.511-0.883-1.01-1.195-1.476c1.717,0.479,2.793,1.266,3.39,1.837L5.837,7.281C5.355,7.002,4.844,6.618,4.33,6.084z
	 M8.374,10.711c-0.571-0.496-0.719-1.308-0.419-1.972C8.23,8.748,8.4,8.725,8.424,8.722c0.188-0.028,0.36-0.212,0.384-0.415
	c0.022-0.165-0.065-0.284-0.2-0.308c0.577-0.343,1.323-0.298,1.86,0.169c0.685,0.593,0.77,1.645,0.191,2.347
	C10.082,11.218,9.057,11.306,8.374,10.711z"/>
</svg>
