<?xml version="1.0" encoding="utf-8"?>
<!-- Generator: Adobe Illustrator 16.0.3, SVG Export Plug-In . SVG Version: 6.00 Build 0)  -->
<!DOCTYPE svg PUBLIC "-//W3C//DTD SVG 1.1//EN" "http://www.w3.org/Graphics/SVG/1.1/DTD/svg11.dtd">
<svg version="1.1" id="Layer_1" xmlns="http://www.w3.org/2000/svg" xmlns:xlink="http://www.w3.org/1999/xlink" x="0px" y="0px"
	 width="32px" height="32px" viewBox="0 0 32 32" enable-background="new 0 0 32 32" xml:space="preserve">
<path fill="#818181" d="M24.732,31.149c0.7,0.003,6.984-4.478,6.984-5.048c0-0.572-7.031-4.845-7.64-4.845s-2.648,2.361-3.2,2.623
	c-0.553,0.263-3.989,0.17-7.822-3.526c-3.835-3.69-5.142-7.944-5.142-8.612c0-0.669,3.196-2.731,3.284-3.216
	c0.09-0.485-4.213-7.681-4.912-7.681c-0.698,0-6.002,6.216-6.002,6.734c0,0.518,0.485,7.181,9.235,15.617
	C18.271,31.633,24.032,31.146,24.732,31.149z"/>
</svg>
