<?xml version="1.0" encoding="utf-8"?>
<!-- Generator: Adobe Illustrator 16.0.3, SVG Export Plug-In . SVG Version: 6.00 Build 0)  -->
<!DOCTYPE svg PUBLIC "-//W3C//DTD SVG 1.1//EN" "http://www.w3.org/Graphics/SVG/1.1/DTD/svg11.dtd">
<svg version="1.1" id="Layer_1" xmlns="http://www.w3.org/2000/svg" xmlns:xlink="http://www.w3.org/1999/xlink" x="0px" y="0px"
	 width="32px" height="32px" viewBox="0 0 32 32" enable-background="new 0 0 32 32" xml:space="preserve">
<path fill="#818181" d="M31.362,14.107c-1.185-1.114-2.622-1.178-3.714-0.677c-0.341-0.148-0.723-0.239-1.132-0.245
	c-0.482-0.021-0.997,0.109-1.488,0.311c-1.229-4.219-5.422-7.747-11.327-7.747c-1.643,0-3.202,0.303-4.621,0.837
	c0.002,0,0.003,0,0.004-0.001C7.588,5.667,6.009,4.878,4.358,4.247C4.096,4.146,3.84,4.416,3.953,4.673
	c0.606,1.375,1.075,2.762,1.413,4.141C5.368,8.812,5.37,8.81,5.372,8.809c-1.056,0.938-1.911,2.05-2.492,3.288
	C2.328,13.27,0.584,12.55,0.584,13.62v4.732c0,1.083,1.729,0.322,2.298,1.531c0.687,1.457,1.747,2.742,3.073,3.771
	c0.493,0.381,0.433,0.603,0.938,3.635c0.052,0.309,0.319,0.535,0.631,0.535c3.709,0,3.229,0.407,3.605-1.851
	c1.82,0.357,3.682,0.329,5.452-0.063c0.388,2.327-0.124,1.913,3.615,1.913c0.313,0,0.579-0.227,0.632-0.535
	c0.555-3.332,0.49-3.517,0.96-3.91c2.913-2.438,3.947-5.613,3.517-8.597c0.456-0.318,0.877-0.48,1.257-0.529
	c-0.208,0.252-0.372,0.534-0.47,0.839c-0.455,1.796,1.076,2.93,2.314,2.177c1.312-0.836,1.074-2.392,0.043-3.324
	c0.752-0.314,1.732-0.286,2.711,0.408C31.321,14.468,31.509,14.242,31.362,14.107z M5.777,13.171c-0.485,0-0.878-0.393-0.878-0.878
	s0.393-0.877,0.878-0.877c0.484,0,0.876,0.393,0.876,0.877S6.261,13.171,5.777,13.171z M17.044,8.59
	c-2.159-0.596-4.531-0.596-6.681,0c-0.058,0.016-0.115,0.023-0.172,0.023c-0.28,0-0.538-0.186-0.616-0.469
	C9.48,7.804,9.68,7.452,10.02,7.357c2.371-0.657,4.986-0.658,7.363,0C18.199,7.582,17.858,8.814,17.044,8.59z M28.602,15.603
	c0.086,0.529-0.67,1.081-1.042,0.923c-0.006-0.006-0.014-0.01-0.02-0.012c-0.301-0.117-0.401-0.514-0.429-0.836
	c0.018-0.445,0.231-0.882,0.578-1.228C28.233,14.737,28.564,15.25,28.602,15.603z"/>
</svg>
