<?xml version="1.0" encoding="utf-8"?>
<!-- Generator: Adobe Illustrator 16.0.3, SVG Export Plug-In . SVG Version: 6.00 Build 0)  -->
<!DOCTYPE svg PUBLIC "-//W3C//DTD SVG 1.1//EN" "http://www.w3.org/Graphics/SVG/1.1/DTD/svg11.dtd">
<svg version="1.1" id="Layer_1" xmlns="http://www.w3.org/2000/svg" xmlns:xlink="http://www.w3.org/1999/xlink" x="0px" y="0px"
	 width="32px" height="32px" viewBox="0 0 32 32" enable-background="new 0 0 32 32" xml:space="preserve">
<g>
	<path fill="#818181" d="M24.076,21.256c-0.609,0-2.648,2.361-3.2,2.623c-0.553,0.264-3.989,0.17-7.822-3.525
		c-3.835-3.69-5.142-7.944-5.142-8.612c0-0.669,3.196-2.731,3.284-3.216c0.09-0.485-4.213-7.681-4.912-7.681
		c-0.698,0-6.002,6.216-6.002,6.734s0.485,7.181,9.235,15.617c8.754,8.438,14.515,7.951,15.215,7.953
		c0.699,0.004,6.983-4.478,6.983-5.047C31.716,25.529,24.686,21.256,24.076,21.256z"/>
	<path fill="#818181" d="M24.826,17.029l2.996-0.074c-0.17-6.946-5.558-12.615-12.39-13.221l-0.267,2.986
		C20.492,7.193,24.693,11.613,24.826,17.029z"/>
	<path fill="#818181" d="M19.377,17.164l3.02-0.074c-0.43-4.014-3.512-7.235-7.452-7.894l-0.267,2.992
		C17.113,12.691,19.006,14.683,19.377,17.164z"/>
</g>
</svg>
