<?xml version="1.0" encoding="utf-8"?>
<!-- Generator: Adobe Illustrator 16.0.3, SVG Export Plug-In . SVG Version: 6.00 Build 0)  -->
<!DOCTYPE svg PUBLIC "-//W3C//DTD SVG 1.1//EN" "http://www.w3.org/Graphics/SVG/1.1/DTD/svg11.dtd">
<svg version="1.1" id="Layer_1" xmlns="http://www.w3.org/2000/svg" xmlns:xlink="http://www.w3.org/1999/xlink" x="0px" y="0px"
	 width="32px" height="32px" viewBox="0 0 32 32" enable-background="new 0 0 32 32" xml:space="preserve">
<g>
	<path fill="#818181" d="M23.07,14.721h-0.291c0.016,0.175,0.041,0.361,0.041,0.541c0,3.778-3.064,6.842-6.841,6.842
		c-3.776,0-6.84-3.064-6.84-6.842c0-0.178,0.048-0.366,0.062-0.541H8.867c-0.848,0-4.283,3.019-4.283,4.141v7.548
		c0,0.982,0.844,1.767,1.85,1.767h9.546h9.565c1.01,0,1.852-0.784,1.852-1.767v-7.548C27.396,17.74,23.919,14.721,23.07,14.721z"/>
	<path fill="#818181" d="M15.979,20.565c2.941,0,5.326-2.387,5.326-5.325c0-2.939-2.385-5.303-5.326-5.303
		c-2.938,0-5.325,2.364-5.325,5.303C10.654,18.179,13.041,20.565,15.979,20.565z"/>
	<path fill="#818181" d="M31.764,8.752C26.807,5.459,21.336,3.83,15.895,3.845c-5.438,0.017-10.84,1.68-15.7,4.908l-0.188,6.509
		l1.81,1.207c2.103-1.524,4.447-2.728,6.968-3.515L7.931,9.418c5.555-1.352,10.899-1.345,16.097,0l-0.853,3.535
		c2.519,0.788,4.866,1.991,6.966,3.515l1.808-1.207L31.764,8.752z"/>
</g>
</svg>
