<?xml version="1.0" encoding="utf-8"?>
<!-- Generator: Adobe Illustrator 16.0.3, SVG Export Plug-In . SVG Version: 6.00 Build 0)  -->
<!DOCTYPE svg PUBLIC "-//W3C//DTD SVG 1.1//EN" "http://www.w3.org/Graphics/SVG/1.1/DTD/svg11.dtd">
<svg version="1.1" id="Layer_1" xmlns="http://www.w3.org/2000/svg" xmlns:xlink="http://www.w3.org/1999/xlink" x="0px" y="0px"
	 width="32px" height="32px" viewBox="0 0 32 32" enable-background="new 0 0 32 32" xml:space="preserve">
<path fill="#818181" d="M30.244,10.568c0-0.973-0.752-1.734-1.816-1.767H18.055l3.895-6.758c0.351-0.603,0.142-1.371-0.459-1.718
	c-0.225-0.13-0.479-0.18-0.717-0.164c-0.403,0.027-0.78,0.244-1,0.622l-3.584,6.218l-2.158-3.746
	c-0.347-0.603-1.099-0.808-1.702-0.459c-0.602,0.348-0.806,1.116-0.458,1.718l2.472,4.288H3.541c-0.974,0-1.838,0.659-1.784,1.767
	v19.503c-0.054,1.108,0.81,1.768,1.784,1.768h24.887c1.066-0.03,1.818-0.791,1.818-1.768C30.244,30.071,30.224,17.77,30.244,10.568z
	 M27.203,25.133h-22.6v-13.29h22.6V25.133z"/>
</svg>
