<?xml version="1.0" encoding="utf-8"?>
<!-- Generator: Adobe Illustrator 16.0.3, SVG Export Plug-In . SVG Version: 6.00 Build 0)  -->
<!DOCTYPE svg PUBLIC "-//W3C//DTD SVG 1.1//EN" "http://www.w3.org/Graphics/SVG/1.1/DTD/svg11.dtd">
<svg version="1.1" id="Layer_1" xmlns="http://www.w3.org/2000/svg" xmlns:xlink="http://www.w3.org/1999/xlink" x="0px" y="0px"
	 width="32px" height="32px" viewBox="0 0 32 32" enable-background="new 0 0 32 32" xml:space="preserve">
<path fill="#818181" d="M32.109,6.007c-1.186,0.526-2.459,0.881-3.797,1.041c1.364-0.817,2.413-2.113,2.905-3.656
	c-1.277,0.757-2.69,1.307-4.198,1.602c-1.205-1.284-2.923-2.087-4.823-2.087c-3.65,0-6.609,2.96-6.609,6.61
	c0,0.519,0.055,1.023,0.169,1.504C10.262,10.745,5.393,8.115,2.131,4.114C1.563,5.095,1.237,6.23,1.237,7.441
	c0,2.292,1.166,4.315,2.94,5.502c-1.084-0.033-2.104-0.333-2.994-0.826V12.2c0,3.204,2.276,5.876,5.303,6.483
	c-0.555,0.155-1.138,0.231-1.742,0.231c-0.426,0-0.841-0.039-1.243-0.118c0.84,2.625,3.281,4.539,6.175,4.588
	c-2.264,1.775-5.112,2.832-8.209,2.832c-0.534,0-1.061-0.029-1.577-0.092c2.924,1.87,6.4,2.968,10.131,2.968
	c12.158,0,18.807-10.07,18.807-18.81c0-0.287-0.007-0.574-0.018-0.856C30.105,8.497,31.226,7.333,32.109,6.007"/>
</svg>
